<svg width="40" height="40" viewBox="0 0 40 40" fill="none" xmlns="http://www.w3.org/2000/svg">
<rect width="40" height="40" rx="20" fill="#F4F5FF"/>
<path d="M19.6511 14.0001H22.5925C23.3666 14.0001 23.9999 14.7667 23.9999 15.7038V27.6297C23.9999 28.5667 23.3666 29.3334 22.5925 29.3334H12.7407C11.9666 29.3334 11.3333 28.5667 11.3333 27.6297V15.7038C11.3333 14.7667 11.9666 14.0001 12.7407 14.0001H15.6822H19.6511Z" stroke="#5D59F3" stroke-width="2.08333"/>
<path d="M12.6667 12.5927C12.6667 11.5334 13.4 10.6667 14.2963 10.6667H17.7022H22.2978H25.7037C26.6 10.6667 27.3334 11.5334 27.3334 12.5927V26.0741C27.3334 27.1334 26.6 28.0001 25.7037 28.0001" stroke="#5D59F3" stroke-width="2.08333"/>
<path d="M13.6668 26H21.6668" stroke="#5D59F3" stroke-width="1.66667" stroke-linecap="round"/>
<path d="M13.6668 22.6667H21.6668" stroke="#5D59F3" stroke-width="1.66667" stroke-linecap="round"/>
</svg>
