<svg width="98" height="19" viewBox="0 0 98 19" fill="none" xmlns="http://www.w3.org/2000/svg">
<path d="M7 0.5L5.17 2.5H2C0.9 2.5 0 3.4 0 4.5V16.5C0 17.6 0.9 18.5 2 18.5H18C19.1 18.5 20 17.6 20 16.5V4.5C20 3.4 19.1 2.5 18 2.5H14.83L13 0.5H7ZM10 15.5C7.24 15.5 5 13.26 5 10.5C5 7.74 7.24 5.5 10 5.5C12.76 5.5 15 7.74 15 10.5C15 13.26 12.76 15.5 10 15.5Z" fill="white"/>
<path d="M32.2612 14.07C32.0839 14.07 31.9392 14.0187 31.8272 13.916C31.7245 13.804 31.6732 13.6593 31.6732 13.482V5.11H28.6632C28.4952 5.11 28.3645 5.068 28.2712 4.984C28.1779 4.9 28.1312 4.77867 28.1312 4.62C28.1312 4.46133 28.1779 4.34 28.2712 4.256C28.3645 4.172 28.4952 4.13 28.6632 4.13H35.8452C36.0132 4.13 36.1439 4.172 36.2372 4.256C36.3305 4.34 36.3772 4.46133 36.3772 4.62C36.3772 4.77867 36.3305 4.9 36.2372 4.984C36.1439 5.068 36.0132 5.11 35.8452 5.11H32.8352V13.482C32.8352 13.6593 32.7839 13.804 32.6812 13.916C32.5785 14.0187 32.4385 14.07 32.2612 14.07ZM39.212 7.014C40.92 7.014 41.774 7.91 41.774 9.702V13.51C41.774 13.678 41.7226 13.8133 41.62 13.916C41.5266 14.0187 41.396 14.07 41.228 14.07C41.06 14.07 40.9246 14.0187 40.822 13.916C40.7193 13.8133 40.668 13.678 40.668 13.51V12.838C40.4906 13.2393 40.22 13.552 39.856 13.776C39.492 13.9907 39.072 14.098 38.596 14.098C38.1573 14.098 37.7513 14.0093 37.378 13.832C37.014 13.6547 36.7246 13.4073 36.51 13.09C36.2953 12.7727 36.188 12.4227 36.188 12.04C36.188 11.5267 36.3186 11.13 36.58 10.85C36.8413 10.5607 37.2706 10.3553 37.868 10.234C38.4653 10.1033 39.296 10.038 40.36 10.038H40.668V9.576C40.668 9.016 40.5513 8.60533 40.318 8.344C40.094 8.08267 39.7253 7.952 39.212 7.952C38.5773 7.952 37.9333 8.12467 37.28 8.47C37.028 8.62867 36.8506 8.708 36.748 8.708C36.636 8.708 36.5426 8.666 36.468 8.582C36.3933 8.498 36.356 8.39067 36.356 8.26C36.356 8.12933 36.3933 8.01733 36.468 7.924C36.552 7.82133 36.6826 7.71867 36.86 7.616C37.1866 7.42933 37.5553 7.28467 37.966 7.182C38.386 7.07 38.8013 7.014 39.212 7.014ZM38.75 13.202C39.31 13.202 39.7673 13.0153 40.122 12.642C40.486 12.2593 40.668 11.7693 40.668 11.172V10.766H40.416C39.5946 10.766 38.9693 10.8033 38.54 10.878C38.1106 10.9433 37.8026 11.06 37.616 11.228C37.4386 11.3867 37.35 11.6247 37.35 11.942C37.35 12.306 37.4806 12.6093 37.742 12.852C38.0126 13.0853 38.3486 13.202 38.75 13.202ZM49.2958 13.104C49.4451 13.244 49.5198 13.3933 49.5198 13.552C49.5198 13.692 49.4685 13.8133 49.3658 13.916C49.2725 14.0187 49.1558 14.07 49.0158 14.07C48.8945 14.07 48.7685 14.014 48.6378 13.902L44.9838 10.752V13.51C44.9838 13.6873 44.9278 13.8273 44.8158 13.93C44.7131 14.0233 44.5825 14.07 44.4238 14.07C44.2558 14.07 44.1158 14.0233 44.0038 13.93C43.9011 13.8273 43.8498 13.6873 43.8498 13.51V4.62C43.8498 4.44267 43.9011 4.30733 44.0038 4.214C44.1158 4.11133 44.2558 4.06 44.4238 4.06C44.5825 4.06 44.7131 4.11133 44.8158 4.214C44.9278 4.30733 44.9838 4.44267 44.9838 4.62V10.304L48.3298 7.238C48.4418 7.126 48.5678 7.07 48.7078 7.07C48.8478 7.07 48.9691 7.12133 49.0718 7.224C49.1745 7.32667 49.2258 7.448 49.2258 7.588C49.2258 7.74667 49.1605 7.88667 49.0298 8.008L46.2718 10.472L49.2958 13.104ZM56.0048 12.418C56.1074 12.418 56.1961 12.46 56.2708 12.544C56.3454 12.628 56.3828 12.7353 56.3828 12.866C56.3828 13.0993 56.2194 13.314 55.8928 13.51C55.5568 13.706 55.2021 13.8553 54.8288 13.958C54.4554 14.0513 54.0914 14.098 53.7368 14.098C52.6821 14.098 51.8468 13.7853 51.2308 13.16C50.6241 12.5347 50.3208 11.6713 50.3208 10.57C50.3208 9.87 50.4561 9.254 50.7268 8.722C50.9974 8.18067 51.3754 7.76067 51.8608 7.462C52.3554 7.16333 52.9154 7.014 53.5408 7.014C54.4274 7.014 55.1321 7.30333 55.6548 7.882C56.1774 8.46067 56.4388 9.24467 56.4388 10.234C56.4388 10.4207 56.4014 10.556 56.3268 10.64C56.2521 10.724 56.1308 10.766 55.9628 10.766H51.4548C51.5388 12.3713 52.2994 13.174 53.7368 13.174C54.1008 13.174 54.4134 13.1273 54.6748 13.034C54.9361 12.9313 55.2161 12.796 55.5148 12.628C55.7574 12.488 55.9208 12.418 56.0048 12.418ZM53.5548 7.896C52.9574 7.896 52.4768 8.08267 52.1128 8.456C51.7581 8.82933 51.5481 9.35667 51.4828 10.038H55.4448C55.4261 9.34733 55.2534 8.82 54.9268 8.456C54.6001 8.08267 54.1428 7.896 53.5548 7.896ZM62.4609 14.07C62.2836 14.07 62.1436 14.0187 62.0409 13.916C61.9383 13.804 61.8869 13.6593 61.8869 13.482V4.69C61.8869 4.522 61.9383 4.38667 62.0409 4.284C62.1529 4.18133 62.2976 4.13 62.4749 4.13H65.7929C66.8289 4.13 67.6316 4.382 68.2009 4.886C68.7796 5.39 69.0689 6.104 69.0689 7.028C69.0689 7.952 68.7796 8.67067 68.2009 9.184C67.6223 9.69733 66.8196 9.954 65.7929 9.954H63.0349V13.482C63.0349 13.6593 62.9836 13.804 62.8809 13.916C62.7783 14.0187 62.6383 14.07 62.4609 14.07ZM65.6809 9.002C67.1836 9.002 67.9349 8.344 67.9349 7.028C67.9349 5.73067 67.1836 5.082 65.6809 5.082H63.0349V9.002H65.6809ZM74.1864 7.014C74.989 7.014 75.5957 7.24267 76.0064 7.7C76.417 8.148 76.6224 8.82 76.6224 9.716V13.51C76.6224 13.6873 76.571 13.8273 76.4684 13.93C76.3657 14.0233 76.2304 14.07 76.0624 14.07C75.885 14.07 75.745 14.0233 75.6424 13.93C75.5397 13.8273 75.4884 13.6873 75.4884 13.51V9.744C75.4884 9.13733 75.3624 8.68933 75.1104 8.4C74.8677 8.11067 74.4757 7.966 73.9344 7.966C73.309 7.966 72.8097 8.15733 72.4364 8.54C72.063 8.92267 71.8764 9.44067 71.8764 10.094V13.51C71.8764 13.6873 71.825 13.8273 71.7224 13.93C71.629 14.0233 71.4937 14.07 71.3164 14.07C71.139 14.07 70.999 14.0233 70.8964 13.93C70.7937 13.8273 70.7424 13.6873 70.7424 13.51V4.606C70.7424 4.44733 70.7937 4.31667 70.8964 4.214C71.0084 4.11133 71.1484 4.06 71.3164 4.06C71.4937 4.06 71.629 4.11133 71.7224 4.214C71.825 4.30733 71.8764 4.438 71.8764 4.606V8.274C72.1004 7.86333 72.413 7.55067 72.8144 7.336C73.2157 7.12133 73.673 7.014 74.1864 7.014ZM81.5274 14.098C80.8834 14.098 80.3141 13.9533 79.8194 13.664C79.3341 13.3747 78.9561 12.964 78.6854 12.432C78.4241 11.8907 78.2934 11.2653 78.2934 10.556C78.2934 9.84667 78.4241 9.226 78.6854 8.694C78.9561 8.15267 79.3341 7.73733 79.8194 7.448C80.3141 7.15867 80.8834 7.014 81.5274 7.014C82.1714 7.014 82.7407 7.15867 83.2354 7.448C83.7301 7.73733 84.1081 8.15267 84.3694 8.694C84.6401 9.226 84.7754 9.84667 84.7754 10.556C84.7754 11.2653 84.6401 11.8907 84.3694 12.432C84.1081 12.964 83.7301 13.3747 83.2354 13.664C82.7407 13.9533 82.1714 14.098 81.5274 14.098ZM81.5274 13.16C82.1994 13.16 82.7127 12.9407 83.0674 12.502C83.4314 12.054 83.6134 11.4053 83.6134 10.556C83.6134 9.72533 83.4314 9.086 83.0674 8.638C82.7034 8.18067 82.1901 7.952 81.5274 7.952C80.8647 7.952 80.3514 8.18067 79.9874 8.638C79.6234 9.086 79.4414 9.72533 79.4414 10.556C79.4414 11.396 79.6187 12.04 79.9734 12.488C80.3374 12.936 80.8554 13.16 81.5274 13.16ZM89.6014 13.174C89.928 13.202 90.0914 13.3513 90.0914 13.622C90.0914 13.7807 90.0307 13.902 89.9094 13.986C89.7974 14.0607 89.6247 14.0887 89.3914 14.07L89.0134 14.042C88.2667 13.986 87.716 13.762 87.3614 13.37C87.0067 12.978 86.8294 12.3853 86.8294 11.592V8.078H85.8914C85.7327 8.078 85.6067 8.04067 85.5134 7.966C85.4294 7.882 85.3874 7.77467 85.3874 7.644C85.3874 7.504 85.4294 7.392 85.5134 7.308C85.6067 7.224 85.7327 7.182 85.8914 7.182H86.8294V5.6C86.8294 5.42267 86.8807 5.28733 86.9834 5.194C87.086 5.09133 87.226 5.04 87.4034 5.04C87.5714 5.04 87.7067 5.09133 87.8094 5.194C87.912 5.28733 87.9634 5.42267 87.9634 5.6V7.182H89.5174C89.6667 7.182 89.7834 7.224 89.8674 7.308C89.9607 7.392 90.0074 7.504 90.0074 7.644C90.0074 7.77467 89.9607 7.882 89.8674 7.966C89.7834 8.04067 89.6667 8.078 89.5174 8.078H87.9634V11.648C87.9634 12.1613 88.066 12.5347 88.2714 12.768C88.486 12.992 88.8034 13.118 89.2234 13.146L89.6014 13.174ZM94.0372 14.098C93.3932 14.098 92.8238 13.9533 92.3292 13.664C91.8438 13.3747 91.4658 12.964 91.1952 12.432C90.9338 11.8907 90.8032 11.2653 90.8032 10.556C90.8032 9.84667 90.9338 9.226 91.1952 8.694C91.4658 8.15267 91.8438 7.73733 92.3292 7.448C92.8238 7.15867 93.3932 7.014 94.0372 7.014C94.6812 7.014 95.2505 7.15867 95.7452 7.448C96.2398 7.73733 96.6178 8.15267 96.8792 8.694C97.1498 9.226 97.2852 9.84667 97.2852 10.556C97.2852 11.2653 97.1498 11.8907 96.8792 12.432C96.6178 12.964 96.2398 13.3747 95.7452 13.664C95.2505 13.9533 94.6812 14.098 94.0372 14.098ZM94.0372 13.16C94.7092 13.16 95.2225 12.9407 95.5772 12.502C95.9412 12.054 96.1232 11.4053 96.1232 10.556C96.1232 9.72533 95.9412 9.086 95.5772 8.638C95.2132 8.18067 94.6998 7.952 94.0372 7.952C93.3745 7.952 92.8612 8.18067 92.4972 8.638C92.1332 9.086 91.9512 9.72533 91.9512 10.556C91.9512 11.396 92.1285 12.04 92.4832 12.488C92.8472 12.936 93.3652 13.16 94.0372 13.16Z" fill="#FAFAFE"/>
</svg>
