<svg width="40" height="40" viewBox="0 0 40 40" fill="none" xmlns="http://www.w3.org/2000/svg">
<rect width="40" height="40" rx="20" fill="#F4F5FF"/>
<path d="M18.9919 24.7792C19.1079 24.9812 19.2745 25.1489 19.4751 25.2655C19.6757 25.3821 19.9032 25.4435 20.1347 25.4435C20.3663 25.4435 20.5938 25.3821 20.7944 25.2655C20.995 25.1489 21.1616 24.9812 21.2776 24.7792L24.2569 19.5786C24.3727 19.3763 24.4337 19.1468 24.4337 18.9133C24.4337 18.6797 24.3727 18.4503 24.2568 18.248C24.1409 18.0457 23.9742 17.8778 23.7735 17.761C23.5728 17.6442 23.3451 17.5828 23.1133 17.5828H21.607V9.85747C21.607 9.66207 21.5299 9.47467 21.3928 9.33649C21.2557 9.19832 21.0698 9.1207 20.8759 9.1207H19.3936C19.1997 9.1207 19.0137 9.19832 18.8766 9.33649C18.7395 9.47467 18.6625 9.66207 18.6625 9.85747V17.5842H17.1561C16.9244 17.5841 16.6967 17.6456 16.496 17.7624C16.2952 17.8791 16.1285 18.0471 16.0127 18.2494C15.8968 18.4516 15.8357 18.6811 15.8357 18.9146C15.8357 19.1482 15.8967 19.3777 16.0126 19.5799L18.9919 24.7792Z" fill="#5D59F3"/>
<path d="M30.234 14.8623H28.9236C28.8389 14.862 28.755 14.8808 28.6766 14.9179C28.5982 14.955 28.527 15.0095 28.4669 15.0783C28.4068 15.1471 28.3591 15.2289 28.3265 15.319C28.2939 15.4091 28.2771 15.5057 28.2769 15.6033V26.3404C28.2766 26.5118 28.247 26.6814 28.1898 26.8396C28.1326 26.9978 28.0489 27.1415 27.9435 27.2624C27.8381 27.3833 27.713 27.4791 27.5755 27.5444C27.4379 27.6096 27.2906 27.643 27.1418 27.6426H12.8584C12.7097 27.643 12.5623 27.6096 12.4248 27.5444C12.2872 27.4791 12.1622 27.3833 12.0568 27.2624C11.9514 27.1415 11.8677 26.9978 11.8105 26.8396C11.7532 26.6814 11.7236 26.5118 11.7233 26.3404V15.5963C11.7232 15.4988 11.7063 15.4023 11.6738 15.3123C11.6413 15.2224 11.5937 15.1406 11.5338 15.0718C11.4738 15.003 11.4027 14.9485 11.3245 14.9113C11.2462 14.8742 11.1624 14.8552 11.0778 14.8554H9.76624C9.68163 14.8552 9.59781 14.8742 9.51958 14.9113C9.44135 14.9485 9.37024 15.003 9.31029 15.0718C9.25035 15.1406 9.20276 15.2224 9.17023 15.3123C9.13771 15.4023 9.12089 15.4988 9.12073 15.5963V26.722C9.12184 27.2694 9.21653 27.8111 9.39939 28.3163C9.58225 28.8215 9.84971 29.2803 10.1865 29.6663C10.5232 30.0524 10.9227 30.3583 11.3621 30.5664C11.8015 30.7746 12.2721 30.881 12.7472 30.8795H27.253C27.7281 30.881 28.1988 30.7746 28.6382 30.5664C29.0775 30.3583 29.477 30.0524 29.8138 29.6663C30.1505 29.2803 30.418 28.8215 30.6008 28.3163C30.7837 27.8111 30.8784 27.2694 30.8795 26.722V15.5963C30.8776 15.4007 30.8087 15.2138 30.6878 15.0763C30.5669 14.9388 30.4038 14.8619 30.234 14.8623Z" fill="#5D59F3"/>
</svg>
