<svg width="270" height="202" viewBox="0 0 270 202" fill="none" xmlns="http://www.w3.org/2000/svg">
<g clip-path="url(#clip0_1_105)">
<path d="M136.582 22.9927L128.104 25.0279L125.184 12.8643C124.025 8.03614 119.541 5.26177 114.754 6.41117C114.121 6.56292 113.49 6.78229 112.879 7.06338L13.8954 52.4923C13.2104 52.7238 12.5626 53.0219 11.961 53.3798L11.9466 53.3862L11.9471 53.3884C8.25947 55.592 6.25027 59.9953 7.299 64.3636L47.9538 233.703C49.247 239.09 54.7086 242.413 60.129 241.112L181.928 211.871C187.348 210.57 190.705 205.128 189.412 199.742L148.757 30.4025C147.464 25.0153 142.002 21.6913 136.582 22.9927ZM115.029 11.7178C115.335 11.5771 115.645 11.4687 115.951 11.3954C117.973 10.9098 119.669 11.984 120.169 14.0683L123.089 26.2319L39.8771 46.2094L115.029 11.7178ZM184.396 200.946C185.029 203.584 183.385 206.249 180.731 206.887L58.9317 236.128C56.2771 236.765 53.6022 235.137 52.9688 232.499L12.314 63.1596C11.6806 60.5212 13.3249 57.8564 15.9794 57.2191L137.778 27.9777C140.433 27.3404 143.108 28.9683 143.741 31.6067L184.396 200.946Z" fill="#E8F0FE"/>
<path d="M130.145 119.204L130.103 119.074C127.309 110.361 122.251 102.624 115.477 96.6974C107.654 89.8533 98.2193 86.1976 89.3092 86.4962L89.2947 86.4353L87.4382 86.6164C87.4375 86.6165 87.4369 86.6167 87.4362 86.6168C87.1828 86.6418 86.9302 86.6764 86.6774 86.7077L86.658 86.6445L84.8448 86.9851L84.8435 86.9854L83.0284 87.3264L83.0478 87.3897C82.8037 87.4517 82.5586 87.5106 82.3185 87.5791L80.5582 88.0783L80.579 88.1349C72.7585 90.9128 66.7633 96.9789 63.5889 105.393C60.6318 113.232 60.4708 122.558 63.1348 131.655L63.1728 131.786C63.2191 131.946 63.2655 132.104 63.3146 132.264C66.0652 141.23 71.4316 149.483 78.4256 155.502C86.4076 162.371 95.9858 165.923 104.987 165.416L105.002 165.475L106.85 165.252C106.878 165.249 106.905 165.244 106.932 165.241L106.95 165.3L108.763 164.96L108.765 164.959L110.578 164.619L110.56 164.559C110.585 164.553 110.611 164.547 110.637 164.541L112.413 164.083L112.393 164.026C121.108 161.157 127.724 154.164 130.695 144.586C133.076 136.907 132.938 128.295 130.295 119.68C130.247 119.521 130.196 119.362 130.145 119.204ZM113.319 141.416C113.311 141.918 113.297 142.416 113.275 142.911C113.271 143.002 113.263 143.091 113.259 143.181C113.238 143.585 113.214 143.988 113.185 144.388C113.172 144.557 113.156 144.724 113.141 144.892C113.114 145.213 113.084 145.532 113.05 145.85C113.031 146.033 113.009 146.216 112.988 146.398C112.951 146.702 112.913 147.004 112.871 147.305C112.846 147.484 112.821 147.664 112.794 147.842C112.746 148.156 112.695 148.467 112.641 148.777C112.613 148.934 112.588 149.092 112.559 149.248C112.483 149.659 112.401 150.067 112.315 150.471C112.304 150.521 112.295 150.572 112.284 150.621C112.185 151.071 112.078 151.516 111.966 151.958C111.931 152.098 111.891 152.235 111.854 152.374C111.774 152.676 111.691 152.976 111.604 153.274C111.556 153.437 111.506 153.598 111.457 153.76C111.373 154.031 111.287 154.3 111.198 154.568C111.144 154.731 111.089 154.893 111.033 155.055C110.939 155.323 110.842 155.588 110.743 155.851C110.686 155.999 110.631 156.15 110.573 156.297C110.455 156.597 110.332 156.893 110.207 157.186C110.163 157.289 110.122 157.394 110.077 157.496C109.905 157.887 109.726 158.273 109.542 158.651C109.499 158.739 109.452 158.824 109.409 158.911C109.29 159.149 109.168 159.383 109.044 159.616L103.098 140.235C103.221 140.216 103.344 140.193 103.466 140.175C103.631 140.151 103.797 140.128 103.963 140.107C104.317 140.06 104.671 140.02 105.026 139.985C105.168 139.97 105.31 139.954 105.453 139.942C105.944 139.9 106.436 139.865 106.931 139.844C106.992 139.841 107.055 139.842 107.116 139.839C107.55 139.823 107.985 139.814 108.421 139.814C108.58 139.814 108.739 139.817 108.897 139.819C109.248 139.823 109.6 139.833 109.953 139.848C110.117 139.855 110.281 139.862 110.446 139.871C110.846 139.894 111.246 139.923 111.646 139.96C111.749 139.969 111.851 139.976 111.953 139.986C112.408 140.031 112.863 140.087 113.319 140.15C113.321 140.433 113.323 140.716 113.321 140.998C113.319 141.136 113.321 141.277 113.319 141.416ZM103.059 158.626C102.774 158.409 102.489 158.188 102.206 157.962C102.074 157.857 101.944 157.748 101.812 157.641C101.576 157.447 101.34 157.251 101.105 157.052C100.965 156.932 100.825 156.812 100.686 156.691C100.458 156.492 100.232 156.291 100.007 156.088C99.8715 155.965 99.7357 155.843 99.6012 155.718C99.3625 155.498 99.126 155.273 98.89 155.045C98.7742 154.934 98.6584 154.825 98.5433 154.712C98.1999 154.376 97.8596 154.034 97.5225 153.685C97.5082 153.67 97.4939 153.655 97.4794 153.639C97.1494 153.297 96.8232 152.947 96.4998 152.593C96.3883 152.471 96.2792 152.346 96.1679 152.222C95.9447 151.973 95.7223 151.722 95.502 151.467C95.3768 151.323 95.2525 151.175 95.1285 151.028C94.9234 150.786 94.7193 150.541 94.5173 150.293C94.3933 150.142 94.2689 149.989 94.1464 149.836C93.94 149.579 93.7358 149.317 93.5327 149.055C93.4213 148.91 93.309 148.768 93.1986 148.622C92.9567 148.303 92.7182 147.98 92.4806 147.654C92.4135 147.562 92.344 147.471 92.2774 147.378C91.9753 146.958 91.6769 146.532 91.3822 146.099C91.3058 145.988 91.2322 145.874 91.1569 145.762C90.9836 145.504 90.8123 145.244 90.6418 144.981C91.0391 144.719 91.4432 144.467 91.8528 144.224C91.9699 144.155 92.0887 144.088 92.2063 144.02C92.5326 143.833 92.8618 143.651 93.1951 143.475C93.3174 143.411 93.4399 143.345 93.5624 143.282C94.0021 143.058 94.4461 142.842 94.8979 142.639C94.932 142.624 94.9672 142.61 95.0019 142.595C95.4224 142.408 95.8492 142.232 96.2795 142.064C96.4143 142.011 96.5502 141.96 96.6857 141.909C97.0495 141.772 97.417 141.643 97.7875 141.518C97.905 141.479 98.0218 141.438 98.1405 141.4C98.5868 141.257 99.0392 141.124 99.4955 141L105.416 160.298C105.19 160.149 104.965 159.998 104.742 159.844C104.642 159.775 104.542 159.709 104.442 159.639C104.065 159.375 103.69 159.103 103.318 158.824C103.231 158.761 103.145 158.692 103.059 158.626ZM80.131 108.996C80.1417 108.67 80.1569 108.347 80.1737 108.025C80.1804 107.887 80.1856 107.748 80.1941 107.611C80.2218 107.152 80.2546 106.697 80.2949 106.246C80.3 106.19 80.3066 106.135 80.3116 106.079C80.3484 105.685 80.389 105.293 80.4345 104.904C80.4522 104.754 80.473 104.608 80.4924 104.459C80.5299 104.166 80.5687 103.872 80.6119 103.582C80.6371 103.413 80.6641 103.246 80.6911 103.079C80.7345 102.81 80.7792 102.542 80.8271 102.276C80.858 102.106 80.8899 101.935 80.923 101.765C80.9738 101.504 81.0263 101.244 81.0816 100.986C81.1171 100.82 81.152 100.654 81.1896 100.489C81.2497 100.225 81.3132 99.9622 81.3778 99.701C81.4156 99.5487 81.4518 99.396 81.4914 99.2451C81.5683 98.9516 81.649 98.6616 81.7321 98.3726C81.7645 98.2593 81.7949 98.144 81.828 98.0305C81.9466 97.6293 82.071 97.2334 82.2021 96.8412C82.2213 96.7819 82.2432 96.7246 82.263 96.6653C82.3752 96.3354 82.4906 96.0073 82.6112 95.6848C82.6594 95.5532 82.7122 95.4247 82.7624 95.2952C82.8588 95.0473 82.9561 94.8 83.057 94.5553C83.117 94.4102 83.1797 94.267 83.2422 94.1231C83.3393 93.8976 83.4381 93.6735 83.5398 93.452C83.6068 93.3048 83.6759 93.1596 83.7449 93.0144C83.8483 92.7982 83.9537 92.5841 84.0617 92.372C84.1335 92.2311 84.205 92.0895 84.2781 91.9508C84.3136 91.8836 84.3504 91.8187 84.3862 91.7523L90.13 110.476C89.6629 110.526 89.1942 110.568 88.7245 110.599C88.5989 110.607 88.4735 110.611 88.3481 110.618C87.9509 110.639 87.5534 110.655 87.1549 110.663C87.0055 110.666 86.8562 110.669 86.7061 110.67C86.2238 110.673 85.7407 110.67 85.2572 110.654C85.2256 110.652 85.1945 110.652 85.1629 110.651C84.6495 110.632 84.1352 110.599 83.6205 110.558C83.4748 110.546 83.3293 110.532 83.1838 110.518C82.7861 110.482 82.3877 110.438 81.9893 110.388C81.8532 110.371 81.7168 110.355 81.5802 110.337C81.0908 110.27 80.601 110.192 80.1111 110.106C80.1128 109.91 80.1151 109.715 80.1199 109.52C80.1233 109.346 80.1262 109.171 80.131 108.996ZM91.629 93.7397C91.7512 93.8401 91.8738 93.9372 91.9943 94.0388C92.308 94.3007 92.6188 94.5688 92.9279 94.8405C92.9705 94.8776 93.0141 94.9138 93.0569 94.9517C93.408 95.2631 93.7557 95.5815 94.1009 95.9052C94.2066 96.0039 94.3103 96.107 94.4152 96.2074C94.654 96.435 94.8926 96.6643 95.1278 96.8983C95.2571 97.0263 95.3845 97.1572 95.5124 97.2872C95.7224 97.5001 95.9323 97.7146 96.1398 97.9328C96.2735 98.0729 96.4066 98.2156 96.5397 98.3583C96.7406 98.5729 96.9402 98.7902 97.1379 99.0102C97.27 99.1563 97.4017 99.3033 97.5329 99.4512C97.7323 99.6766 97.9293 99.9056 98.1265 100.135C98.2509 100.281 98.3766 100.427 98.5006 100.574C98.7096 100.824 98.9163 101.078 99.1228 101.333C99.229 101.465 99.3366 101.595 99.4426 101.728C99.7148 102.071 99.9842 102.419 100.251 102.77C100.287 102.818 100.325 102.865 100.361 102.913C100.664 103.315 100.962 103.722 101.257 104.135C101.347 104.259 101.434 104.387 101.522 104.513C101.727 104.803 101.929 105.094 102.13 105.389C102.239 105.549 102.345 105.71 102.452 105.872C102.569 106.048 102.685 106.226 102.801 106.404C102.443 106.613 102.082 106.818 101.714 107.011C101.645 107.047 101.574 107.081 101.504 107.116C101.158 107.296 100.807 107.468 100.453 107.635C100.315 107.7 100.175 107.762 100.036 107.824C99.7346 107.96 99.4307 108.091 99.1245 108.217C98.983 108.275 98.8424 108.334 98.7005 108.391C98.3274 108.538 97.9501 108.678 97.57 108.812C97.5025 108.836 97.4371 108.862 97.3701 108.885C96.9244 109.037 96.4735 109.179 96.0187 109.313C95.8851 109.352 95.75 109.388 95.616 109.425C95.2831 109.518 94.9488 109.607 94.6113 109.689C94.4543 109.729 94.2966 109.765 94.1383 109.802C94.0212 109.829 93.9027 109.852 93.7853 109.878L88.0152 91.0688C88.0927 91.1204 88.1699 91.1688 88.2473 91.2203C88.3965 91.3205 88.545 91.4232 88.6936 91.5259C88.92 91.6817 89.1452 91.8401 89.3694 92.002C89.5178 92.1087 89.6664 92.2162 89.814 92.3248C90.0405 92.4918 90.2653 92.6625 90.489 92.8341C90.6304 92.943 90.7727 93.0501 90.9135 93.1615C91.1542 93.3525 91.3915 93.5457 91.629 93.7397ZM111.243 135.692C110.808 135.653 110.374 135.62 109.94 135.596C109.757 135.586 109.575 135.578 109.393 135.57C109.01 135.554 108.628 135.543 108.247 135.538C108.067 135.536 107.888 135.532 107.709 135.533C107.262 135.534 106.817 135.542 106.373 135.558C106.271 135.562 106.17 135.562 106.069 135.567C105.526 135.591 104.985 135.628 104.446 135.674C104.301 135.687 104.156 135.704 104.012 135.719C103.612 135.758 103.214 135.803 102.817 135.855C102.635 135.879 102.454 135.905 102.273 135.932C102.115 135.955 101.956 135.973 101.799 135.998L99.0907 127.169L111.106 124.912C111.109 124.923 111.113 124.935 111.116 124.946C111.128 124.99 111.139 125.033 111.15 125.076C111.293 125.598 111.427 126.119 111.556 126.641C111.596 126.805 111.636 126.97 111.675 127.135C111.779 127.572 111.878 128.009 111.972 128.444C112.002 128.584 112.035 128.723 112.064 128.864C112.181 129.423 112.29 129.981 112.391 130.54C112.411 130.65 112.428 130.76 112.447 130.87C112.527 131.328 112.602 131.784 112.671 132.24C112.696 132.407 112.721 132.574 112.745 132.741C112.81 133.199 112.87 133.656 112.925 134.113C112.938 134.22 112.953 134.327 112.965 134.433C113.02 134.923 113.067 135.411 113.11 135.898C112.605 135.83 112.1 135.771 111.597 135.721C111.478 135.71 111.361 135.703 111.243 135.692ZM96.9949 137.106C96.9 137.136 96.8059 137.165 96.7116 137.194C96.3652 137.302 96.0211 137.415 95.6799 137.533C95.6318 137.55 95.5832 137.566 95.5356 137.582C95.1564 137.716 94.7812 137.857 94.409 138.003C94.3181 138.038 94.2284 138.075 94.1377 138.112C93.813 138.243 93.4907 138.378 93.171 138.518C93.1154 138.542 93.0589 138.566 93.0035 138.591C92.641 138.752 92.2829 138.921 91.9274 139.095C91.8415 139.137 91.7562 139.18 91.6703 139.223C91.3655 139.376 91.0618 139.533 90.7616 139.694C90.7011 139.727 90.6399 139.758 90.5794 139.791C90.2337 139.98 89.8923 140.177 89.5545 140.378C89.4741 140.425 89.3944 140.475 89.3143 140.523C89.027 140.697 88.7424 140.876 88.4601 141.059C88.4162 141.088 88.3709 141.114 88.3272 141.143C88.0632 140.669 87.8021 140.192 87.55 139.711C87.4929 139.602 87.4384 139.492 87.382 139.383C87.1557 138.945 86.9341 138.505 86.7169 138.061C86.6355 137.895 86.5553 137.729 86.475 137.562C86.2642 137.121 86.0585 136.678 85.8573 136.232C85.8037 136.114 85.7485 135.997 85.696 135.878C85.4484 135.321 85.2088 134.762 84.9771 134.198C84.9208 134.062 84.8668 133.925 84.8121 133.789C84.6333 133.346 84.4584 132.902 84.2887 132.455C84.2234 132.283 84.1583 132.111 84.094 131.938C83.9132 131.45 83.7379 130.96 83.568 130.467C83.5359 130.374 83.5022 130.282 83.4701 130.189C83.4613 130.162 83.4529 130.135 83.444 130.108L95.4583 127.851L98.192 136.762C98.1837 136.765 98.1763 136.768 98.1685 136.769C97.7758 136.875 97.3848 136.989 96.9949 137.106ZM81.4599 114.536C81.5579 114.551 81.6559 114.566 81.7537 114.579C82.1681 114.637 82.5814 114.688 82.9954 114.733C83.0641 114.74 83.1333 114.747 83.2024 114.753C83.5613 114.79 83.9192 114.821 84.277 114.847C84.3783 114.855 84.4806 114.863 84.5817 114.87C84.9938 114.897 85.4065 114.919 85.8173 114.933C85.8776 114.936 85.9365 114.936 85.9966 114.938C86.3602 114.949 86.7233 114.954 87.0861 114.954C87.1889 114.955 87.2914 114.955 87.3937 114.954C87.8048 114.951 88.2154 114.944 88.6254 114.928C88.6733 114.926 88.7208 114.923 88.7681 114.922C89.1387 114.906 89.508 114.884 89.8779 114.857C89.981 114.85 90.084 114.843 90.1875 114.835C90.5958 114.802 91.0038 114.764 91.4109 114.719C91.4176 114.718 91.4251 114.717 91.4316 114.716L94.1653 123.627L82.1721 125.881C82.0197 125.31 81.8765 124.739 81.7413 124.169C81.7038 124.011 81.6688 123.854 81.6328 123.696C81.5266 123.235 81.4265 122.773 81.3315 122.312C81.2976 122.148 81.2627 121.984 81.2304 121.82C81.1126 121.226 81.0016 120.632 80.9025 120.04C80.8943 119.991 80.8875 119.942 80.8793 119.892C80.7896 119.347 80.7085 118.803 80.634 118.26C80.6103 118.088 80.5886 117.915 80.5664 117.744C80.507 117.282 80.4541 116.82 80.4057 116.36C80.3909 116.219 80.3751 116.079 80.3612 115.939C80.3101 115.405 80.268 114.872 80.2318 114.341C80.2846 114.351 80.3364 114.357 80.3891 114.367C80.7465 114.428 81.1032 114.484 81.4599 114.536ZM96.0581 113.886C96.4348 113.794 96.8082 113.695 97.1792 113.59C97.3189 113.551 97.4595 113.515 97.5987 113.475C98.1005 113.327 98.5969 113.171 99.0881 113.002C99.1795 112.97 99.2686 112.936 99.3585 112.904C99.7597 112.762 100.158 112.615 100.552 112.459C100.712 112.395 100.871 112.329 101.029 112.264C101.361 112.127 101.69 111.985 102.016 111.838C102.173 111.767 102.332 111.696 102.489 111.623C102.855 111.451 103.218 111.271 103.578 111.086C103.677 111.034 103.779 110.987 103.878 110.935C104.295 110.714 104.709 110.487 105.116 110.248C105.373 110.712 105.628 111.178 105.875 111.649C105.938 111.768 105.997 111.888 106.059 112.008C106.274 112.425 106.485 112.845 106.692 113.267C106.767 113.419 106.842 113.571 106.915 113.724C107.16 114.235 107.4 114.747 107.632 115.264C107.643 115.289 107.655 115.313 107.666 115.338C107.907 115.878 108.14 116.423 108.367 116.971C108.432 117.125 108.494 117.281 108.558 117.436C108.734 117.867 108.905 118.3 109.072 118.735C109.124 118.872 109.178 119.009 109.229 119.146C109.421 119.659 109.607 120.175 109.787 120.693L97.7951 122.946L95.0867 114.117C95.2365 114.084 95.3841 114.046 95.5335 114.012C95.7083 113.97 95.8835 113.929 96.0581 113.886ZM113.422 120.009C113.213 119.401 112.993 118.798 112.767 118.197C112.701 118.019 112.631 117.842 112.563 117.663C112.39 117.215 112.215 116.768 112.033 116.323C111.96 116.144 111.888 115.964 111.814 115.786C111.573 115.207 111.327 114.63 111.072 114.058C111.063 114.039 111.055 114.02 111.047 114.002C110.783 113.411 110.508 112.827 110.228 112.245C110.147 112.075 110.064 111.907 109.981 111.739C109.769 111.307 109.554 110.878 109.334 110.451C109.246 110.282 109.161 110.115 109.072 109.947C108.771 109.374 108.465 108.805 108.149 108.242C108.544 107.949 108.93 107.644 109.31 107.334C109.419 107.245 109.526 107.154 109.634 107.064C109.927 106.818 110.216 106.567 110.5 106.312C110.602 106.221 110.704 106.13 110.804 106.038C111.169 105.7 111.528 105.356 111.877 105.002C111.923 104.956 111.967 104.907 112.012 104.861C112.317 104.548 112.616 104.228 112.908 103.902C113.007 103.792 113.105 103.681 113.203 103.569C113.462 103.273 113.716 102.971 113.965 102.665C114.038 102.574 114.114 102.486 114.186 102.394C114.469 102.038 114.747 101.676 115.017 101.307C119.741 105.865 123.408 111.462 125.751 117.691L113.422 120.007L113.422 120.009ZM111.72 98.4353C111.503 98.7284 111.286 99.0223 111.059 99.3059C111.032 99.34 111.003 99.3729 110.976 99.407C110.718 99.7273 110.453 100.041 110.182 100.349C110.102 100.439 110.022 100.53 109.942 100.62C109.664 100.928 109.381 101.233 109.09 101.529C109.065 101.556 109.039 101.584 109.014 101.611C108.699 101.93 108.375 102.239 108.045 102.544C107.959 102.624 107.871 102.702 107.785 102.781C107.505 103.033 107.22 103.28 106.93 103.523C106.866 103.576 106.803 103.631 106.738 103.685C106.439 103.929 106.133 104.164 105.825 104.398C105.75 104.283 105.67 104.172 105.595 104.058C105.315 103.632 105.031 103.211 104.744 102.795C104.618 102.612 104.492 102.428 104.364 102.247C104.024 101.766 103.681 101.292 103.332 100.824C103.265 100.734 103.2 100.642 103.133 100.553C102.718 100.003 102.297 99.4648 101.87 98.9346C101.75 98.7847 101.627 98.6385 101.506 98.4903C101.187 98.1027 100.867 97.7202 100.543 97.3434C100.399 97.1754 100.254 97.0083 100.108 96.8429C99.7651 96.4535 99.4192 96.071 99.0692 95.6933C98.9605 95.5759 98.853 95.4558 98.7439 95.3393C98.2898 94.857 97.8298 94.3847 97.3643 93.9239C97.252 93.8128 97.1373 93.7054 97.0245 93.5951C96.6619 93.2416 96.2968 92.8934 95.9276 92.5524C95.7722 92.409 95.6165 92.2674 95.4604 92.1266C95.1024 91.8036 94.7422 91.4875 94.3789 91.1769C94.284 91.0955 94.191 91.009 94.0954 90.9278C100.154 91.5915 106.299 94.1915 111.72 98.4353ZM78.7898 94.0776C78.6562 94.455 78.5278 94.8355 78.4049 95.2206C78.3494 95.3939 78.2938 95.5672 78.2407 95.7416C78.1068 96.1812 77.9801 96.6258 77.8586 97.0743C77.8296 97.183 77.7977 97.2889 77.769 97.3984C77.6244 97.9544 77.4906 98.5181 77.3663 99.0881C77.3339 99.2377 77.3051 99.3898 77.2738 99.5408C77.1847 99.9704 77.1004 100.402 77.0232 100.839C76.9882 101.034 76.9552 101.229 76.9236 101.426C76.8538 101.851 76.7898 102.279 76.7303 102.711C76.7065 102.886 76.6799 103.061 76.6579 103.238C76.5828 103.837 76.5155 104.442 76.4603 105.052C76.4544 105.121 76.4505 105.192 76.4446 105.26C76.398 105.806 76.3607 106.357 76.3308 106.912C76.3201 107.11 76.3126 107.309 76.3042 107.507C76.2857 107.952 76.2713 108.4 76.2634 108.851C76.2614 108.97 76.2545 109.088 76.2524 109.208C75.8766 109.1 75.5008 108.992 75.1283 108.873C75.0738 108.856 75.0193 108.836 74.9646 108.818C74.5511 108.685 74.1396 108.542 73.7299 108.394C73.6121 108.351 73.4947 108.309 73.3773 108.265C72.9208 108.095 72.4661 107.92 72.0145 107.733C71.9962 107.725 71.9778 107.717 71.9595 107.709C71.5251 107.528 71.094 107.337 70.6645 107.141C70.5479 107.087 70.4307 107.033 70.3148 106.978C69.8975 106.782 69.4817 106.581 69.0693 106.37C69.0399 106.355 69.0098 106.34 68.9804 106.326C68.6365 106.149 68.2979 105.961 67.9578 105.774C70.3756 100.456 74.1433 96.3365 78.8969 93.7632C78.8586 93.8663 78.8265 93.9739 78.7898 94.0776ZM66.5706 109.435C66.9982 109.673 67.4287 109.903 67.8615 110.126C67.9578 110.176 68.0553 110.223 68.1511 110.271C68.5522 110.474 68.9554 110.671 69.3608 110.862C69.5041 110.929 69.648 110.997 69.7921 111.062C70.2182 111.257 70.6467 111.446 71.0773 111.626C71.1535 111.658 71.2287 111.693 71.3053 111.724C71.8066 111.931 72.3105 112.127 72.8169 112.314C72.9506 112.364 73.0847 112.411 73.2193 112.459C73.6126 112.601 74.0074 112.737 74.4037 112.866C74.547 112.913 74.6906 112.961 74.8339 113.006C75.3402 113.167 75.8472 113.32 76.3579 113.462C76.3593 113.489 76.3625 113.517 76.3639 113.544C76.3707 113.657 76.381 113.769 76.3891 113.881C76.425 114.412 76.4679 114.942 76.5177 115.475C76.537 115.677 76.5578 115.881 76.5795 116.084C76.6287 116.554 76.6832 117.025 76.7425 117.496C76.7663 117.684 76.7888 117.873 76.8141 118.062C76.902 118.707 76.9971 119.353 77.105 120.001C77.1122 120.045 77.1213 120.088 77.1286 120.132C77.2306 120.737 77.3431 121.344 77.4635 121.951C77.5022 122.149 77.5444 122.347 77.5857 122.545C77.6831 123.019 77.787 123.493 77.8952 123.967C77.9414 124.167 77.986 124.367 78.0337 124.568C78.1754 125.163 78.3249 125.759 78.4828 126.355C78.4986 126.413 78.5122 126.471 78.5272 126.528C78.53 126.54 78.5326 126.551 78.5361 126.562L66.2122 128.878C64.6182 122.156 64.7425 115.387 66.5706 109.435ZM67.4464 133.116L79.813 130.792C79.8318 130.849 79.8531 130.905 79.8719 130.962C79.9277 131.128 79.9878 131.292 80.045 131.458C80.2097 131.934 80.3786 132.408 80.5532 132.88C80.6304 133.089 80.7087 133.296 80.7876 133.504C80.9605 133.959 81.1386 134.411 81.3204 134.862C81.3932 135.042 81.4646 135.223 81.5384 135.403C81.794 136.022 82.0561 136.637 82.3277 137.247C82.3573 137.314 82.3892 137.38 82.4195 137.446C82.6642 137.991 82.9165 138.532 83.1743 139.069C83.2645 139.257 83.357 139.444 83.4489 139.631C83.6597 140.06 83.8745 140.487 84.0942 140.912C84.1914 141.1 84.2879 141.289 84.3871 141.476C84.6459 141.968 84.9114 142.457 85.182 142.941C85.2373 143.04 85.2901 143.14 85.3464 143.24C85.3613 143.266 85.3752 143.293 85.3902 143.32C85.382 143.327 85.3745 143.334 85.3654 143.34C85.3329 143.367 85.3017 143.397 85.2691 143.424C84.9076 143.726 84.5546 144.038 84.2068 144.356C84.097 144.457 83.989 144.558 83.881 144.66C83.5915 144.933 83.3068 145.211 83.0277 145.493C82.9401 145.582 82.8504 145.669 82.7636 145.758C82.4106 146.125 82.0658 146.497 81.7302 146.88C81.665 146.954 81.6028 147.031 81.5383 147.105C81.2662 147.422 80.9993 147.744 80.7386 148.07C80.6436 148.189 80.5496 148.309 80.4564 148.43C80.2004 148.76 79.9508 149.096 79.7073 149.438C79.6493 149.519 79.5884 149.599 79.5313 149.681C79.2716 150.051 79.0178 150.427 78.7722 150.81C73.7248 145.976 69.7715 139.805 67.4464 133.116ZM82.0768 153.656C82.2922 153.322 82.5094 152.989 82.7366 152.664C82.7844 152.596 82.8346 152.53 82.883 152.462C83.1082 152.146 83.3385 151.836 83.576 151.531C83.6497 151.435 83.7243 151.339 83.7996 151.244C84.0855 150.884 84.3763 150.53 84.6783 150.185C84.6922 150.169 84.7068 150.153 84.7205 150.137C85.0101 149.808 85.3085 149.487 85.6117 149.171C85.6982 149.08 85.7863 148.99 85.874 148.901C86.1509 148.621 86.4332 148.345 86.7217 148.075C86.7733 148.027 86.8232 147.977 86.8748 147.929C87.1555 147.67 87.4466 147.42 87.7381 147.172C87.8135 147.286 87.8928 147.396 87.9679 147.51C88.2674 147.962 88.5707 148.409 88.8785 148.85C89.0061 149.034 89.1329 149.217 89.2617 149.398C89.6434 149.933 90.0298 150.461 90.4221 150.979C90.4662 151.037 90.5081 151.097 90.5519 151.154C90.9887 151.726 91.4344 152.285 91.8854 152.837C92.0131 152.993 92.1437 153.146 92.2723 153.301C92.6087 153.704 92.9487 154.102 93.2926 154.493C93.4373 154.658 93.5811 154.822 93.7271 154.984C94.1216 155.424 94.5208 155.856 94.9251 156.28C95.0027 156.361 95.0786 156.446 95.1568 156.527C95.6364 157.025 96.1229 157.509 96.6149 157.984C96.7475 158.112 96.882 158.236 97.0154 158.362C97.3872 158.714 97.7611 159.059 98.1389 159.397C98.2981 159.538 98.4566 159.68 98.6166 159.82C99.0226 160.175 99.4329 160.522 99.8456 160.86C99.9299 160.93 100.012 161.004 100.096 161.073C93.9211 160.524 87.6326 157.955 82.0768 153.656ZM114.21 158.437C114.372 158.019 114.526 157.594 114.675 157.165C114.714 157.053 114.752 156.941 114.79 156.828C114.928 156.42 115.062 156.007 115.188 155.589C115.199 155.553 115.211 155.516 115.222 155.479C115.358 155.03 115.484 154.572 115.605 154.112C115.636 153.996 115.665 153.88 115.695 153.763C115.803 153.337 115.907 152.907 116.004 152.472C116.014 152.428 116.025 152.385 116.035 152.34C116.139 151.868 116.234 151.39 116.323 150.909C116.346 150.789 116.367 150.668 116.389 150.547C116.468 150.107 116.542 149.664 116.609 149.217C116.617 149.164 116.626 149.111 116.634 149.058C116.706 148.567 116.769 148.071 116.827 147.572C116.841 147.449 116.854 147.324 116.868 147.199C116.917 146.749 116.961 146.297 116.999 145.841C117.003 145.778 117.011 145.716 117.015 145.653C117.055 145.147 117.086 144.638 117.11 144.125C117.117 143.996 117.122 143.867 117.127 143.738C117.147 143.282 117.161 142.825 117.169 142.364C117.17 142.291 117.172 142.219 117.174 142.146C117.179 141.726 117.181 141.305 117.177 140.883C117.615 140.99 118.052 141.1 118.487 141.223C118.588 141.252 118.688 141.283 118.789 141.313C119.193 141.43 119.596 141.554 119.997 141.685C120.132 141.729 120.266 141.773 120.4 141.819C121.379 142.15 122.35 142.521 123.308 142.931C123.439 142.987 123.57 143.045 123.7 143.103C124.091 143.275 124.481 143.454 124.868 143.64C124.964 143.685 125.061 143.729 125.155 143.776C125.569 143.978 125.979 144.191 126.389 144.408C123.987 150.72 119.717 155.606 114.21 158.437ZM127.56 140.628C127.091 140.379 126.62 140.141 126.146 139.909C126.028 139.852 125.909 139.798 125.79 139.741C125.376 139.543 124.96 139.351 124.542 139.167C124.381 139.096 124.22 139.026 124.058 138.957C123.618 138.769 123.175 138.588 122.73 138.415C122.633 138.377 122.538 138.336 122.441 138.3C121.907 138.096 121.37 137.905 120.831 137.723C120.687 137.675 120.543 137.63 120.399 137.584C119.984 137.449 119.568 137.32 119.15 137.198C118.989 137.151 118.825 137.103 118.663 137.058C118.152 136.916 117.64 136.781 117.126 136.658C117.085 136.648 117.046 136.637 117.006 136.627C116.997 136.626 116.988 136.623 116.98 136.621C116.98 136.62 116.98 136.619 116.98 136.619C116.979 136.613 116.979 136.607 116.978 136.6C116.929 136.002 116.868 135.401 116.8 134.8C116.78 134.616 116.757 134.433 116.734 134.248C116.681 133.807 116.623 133.365 116.561 132.923C116.534 132.732 116.507 132.54 116.478 132.348C116.399 131.822 116.312 131.295 116.22 130.767C116.204 130.681 116.192 130.595 116.177 130.509C116.067 129.898 115.946 129.287 115.818 128.675C115.782 128.504 115.744 128.332 115.707 128.16C115.609 127.707 115.506 127.254 115.397 126.8C115.35 126.603 115.303 126.407 115.255 126.21C115.135 125.724 115.008 125.238 114.877 124.752C114.841 124.619 114.808 124.485 114.771 124.351C114.76 124.311 114.75 124.271 114.739 124.23L127.11 121.906C128.837 128.351 128.99 134.757 127.56 140.628Z" fill="#E8F0FE"/>
<path d="M148.476 182.559L75.8112 198.149L78.0384 206.439L150.703 190.849L148.476 182.559Z" fill="#E8F0FE"/>
<path d="M135.686 172.149L82.4872 183.289L84.7067 191.353L137.905 180.213L135.686 172.149Z" fill="#E8F0FE"/>
<path d="M118.326 56.973L45.6614 72.5623L47.8886 80.8523L120.554 65.2631L118.326 56.973Z" fill="#E8F0FE"/>
<rect x="122.458" y="56.8792" width="139.071" height="188.839" rx="7" transform="rotate(5 122.458 56.8792)" fill="white"/>
<path d="M217.927 156.643L217.945 156.514C219.128 147.849 217.656 139.512 213.687 132.401C209.105 124.19 201.51 118.491 192.65 116.539L192.663 116.479L190.764 116.181C190.763 116.181 190.762 116.181 190.762 116.181C190.502 116.141 190.239 116.109 189.978 116.075L189.987 116.012L188.058 115.871L188.057 115.871L186.126 115.729L186.117 115.792C185.85 115.787 185.583 115.78 185.317 115.783L183.369 115.8L183.364 115.857C174.456 116.443 165.856 120.493 158.962 127.394C152.541 133.822 148.188 142.31 146.705 151.293L146.683 151.422C146.657 151.579 146.631 151.736 146.607 151.894C145.268 160.779 146.81 169.665 150.952 176.915C155.679 185.189 163.461 190.829 172.504 192.614L172.493 192.672L174.402 192.929C174.431 192.933 174.459 192.936 174.488 192.939L174.479 192.998L176.407 193.14L176.409 193.14L178.338 193.281L178.347 193.222C178.375 193.223 178.403 193.224 178.431 193.224L180.376 193.249L180.381 193.192C190.206 192.745 199.832 188.004 207.049 179.988C212.835 173.562 216.573 165.653 217.86 157.115C217.885 156.958 217.906 156.8 217.927 156.643ZM191.459 172.751C191.226 173.207 190.987 173.659 190.743 174.107C190.698 174.189 190.651 174.268 190.606 174.349C190.404 174.713 190.2 175.076 189.991 175.434C189.902 175.585 189.812 175.735 189.721 175.885C189.55 176.171 189.378 176.455 189.201 176.737C189.1 176.9 188.997 177.062 188.894 177.223C188.721 177.492 188.547 177.758 188.371 178.023C188.266 178.181 188.161 178.339 188.054 178.495C187.866 178.77 187.676 179.042 187.484 179.312C187.386 179.448 187.291 179.586 187.192 179.722C186.933 180.079 186.669 180.431 186.402 180.779C186.369 180.822 186.338 180.866 186.305 180.908C186.006 181.295 185.7 181.675 185.392 182.052C185.295 182.17 185.194 182.286 185.095 182.404C184.881 182.66 184.665 182.914 184.445 183.164C184.326 183.302 184.204 183.436 184.083 183.572C183.879 183.799 183.674 184.024 183.466 184.246C183.339 184.382 183.213 184.516 183.085 184.65C182.873 184.872 182.659 185.09 182.443 185.305C182.321 185.427 182.199 185.551 182.077 185.671C181.826 185.916 181.573 186.156 181.318 186.393C181.229 186.476 181.141 186.562 181.051 186.643C180.706 186.958 180.358 187.266 180.007 187.566C179.925 187.636 179.842 187.701 179.76 187.77C179.537 187.958 179.312 188.141 179.086 188.323L181.981 169.118C182.11 169.131 182.24 169.141 182.369 169.155C182.541 169.174 182.714 169.195 182.886 169.216C183.253 169.262 183.618 169.314 183.981 169.371C184.127 169.393 184.273 169.414 184.419 169.438C184.919 169.522 185.417 169.613 185.91 169.718C185.971 169.73 186.032 169.746 186.094 169.759C186.526 169.853 186.956 169.954 187.383 170.062C187.539 170.102 187.693 170.145 187.847 170.186C188.189 170.277 188.53 170.374 188.868 170.476C189.025 170.523 189.183 170.571 189.34 170.62C189.721 170.741 190.1 170.868 190.476 171.001C190.572 171.035 190.669 171.067 190.764 171.101C191.19 171.256 191.61 171.421 192.028 171.593C191.903 171.852 191.778 172.111 191.649 172.368C191.585 172.494 191.524 172.624 191.459 172.751ZM173.67 185.924C173.489 185.654 173.309 185.381 173.133 185.103C173.052 184.974 172.973 184.843 172.893 184.711C172.748 184.476 172.605 184.237 172.464 183.997C172.381 183.852 172.298 183.707 172.217 183.561C172.083 183.323 171.952 183.083 171.823 182.841C171.746 182.694 171.668 182.549 171.592 182.401C171.458 182.14 171.327 181.876 171.198 181.609C171.135 181.478 171.07 181.35 171.009 181.217C170.823 180.824 170.644 180.427 170.471 180.023C170.464 180.006 170.456 179.989 170.449 179.971C170.28 179.576 170.118 179.174 169.961 178.769C169.906 178.63 169.856 178.488 169.802 178.348C169.696 178.064 169.591 177.779 169.49 177.491C169.432 177.328 169.377 177.162 169.322 176.996C169.23 176.724 169.14 176.448 169.054 176.172C169 176.002 168.947 175.832 168.896 175.661C168.81 175.374 168.727 175.084 168.647 174.793C168.602 174.633 168.557 174.475 168.514 174.315C168.42 173.962 168.332 173.607 168.246 173.25C168.222 173.149 168.195 173.049 168.171 172.947C168.065 172.487 167.964 172.023 167.87 171.554C167.845 171.433 167.824 171.311 167.801 171.189C167.747 170.91 167.697 170.629 167.648 170.347C168.155 170.206 168.664 170.077 169.174 169.957C169.32 169.922 169.467 169.891 169.612 169.858C170.016 169.769 170.42 169.685 170.826 169.607C170.974 169.579 171.124 169.55 171.272 169.523C171.803 169.428 172.336 169.341 172.869 169.268C172.909 169.263 172.95 169.259 172.991 169.254C173.487 169.188 173.984 169.134 174.481 169.087C174.637 169.073 174.793 169.06 174.948 169.047C175.366 169.013 175.784 168.986 176.203 168.965C176.336 168.959 176.469 168.95 176.602 168.945C177.103 168.926 177.606 168.917 178.109 168.918L175.226 188.041C175.072 187.848 174.919 187.655 174.77 187.457C174.704 187.37 174.635 187.284 174.569 187.196C174.319 186.86 174.074 186.518 173.835 186.17C173.778 186.09 173.725 186.006 173.67 185.924ZM173.541 134.819C173.698 134.524 173.859 134.232 174.02 133.942C174.089 133.817 174.156 133.691 174.226 133.568C174.46 133.156 174.696 132.748 174.939 132.346C174.969 132.296 175 132.247 175.03 132.197C175.244 131.846 175.46 131.498 175.679 131.153C175.764 131.021 175.85 130.892 175.936 130.761C176.105 130.502 176.275 130.243 176.448 129.988C176.548 129.841 176.65 129.695 176.751 129.549C176.915 129.313 177.079 129.08 177.246 128.849C177.353 128.701 177.461 128.552 177.57 128.405C177.737 128.179 177.905 127.954 178.075 127.732C178.185 127.589 178.294 127.446 178.404 127.305C178.582 127.078 178.763 126.854 178.943 126.631C179.049 126.502 179.153 126.371 179.26 126.243C179.467 125.994 179.677 125.749 179.888 125.505C179.971 125.41 180.052 125.312 180.136 125.216C180.432 124.879 180.732 124.548 181.037 124.222C181.082 124.173 181.13 124.126 181.176 124.077C181.434 123.803 181.695 123.532 181.958 123.267C182.064 123.159 182.174 123.055 182.281 122.949C182.487 122.746 182.694 122.544 182.902 122.346C183.026 122.228 183.152 122.113 183.278 121.997C183.475 121.815 183.672 121.635 183.872 121.458C184.003 121.34 184.136 121.224 184.269 121.109C184.468 120.937 184.667 120.767 184.868 120.6C185.002 120.49 185.136 120.378 185.27 120.269C185.335 120.217 185.4 120.167 185.465 120.115L182.668 138.669C182.187 138.599 181.71 138.519 181.236 138.43C181.109 138.407 180.985 138.379 180.859 138.354C180.46 138.274 180.064 138.19 179.67 138.097C179.522 138.063 179.375 138.028 179.227 137.992C178.753 137.874 178.282 137.75 177.816 137.615C177.785 137.606 177.755 137.598 177.725 137.589C177.23 137.443 176.742 137.285 176.256 137.118C176.119 137.071 175.982 137.022 175.846 136.973C175.473 136.84 175.103 136.701 174.735 136.556C174.61 136.506 174.483 136.458 174.358 136.407C173.908 136.223 173.464 136.03 173.023 135.828C173.112 135.65 173.203 135.472 173.295 135.295C173.376 135.137 173.458 134.977 173.541 134.819ZM191.664 123.741C191.738 123.863 191.815 123.983 191.887 124.106C192.076 124.423 192.26 124.746 192.441 125.072C192.466 125.116 192.492 125.16 192.517 125.206C192.721 125.578 192.918 125.956 193.11 126.338C193.169 126.455 193.225 126.575 193.282 126.693C193.414 126.961 193.544 127.23 193.669 127.503C193.738 127.652 193.804 127.804 193.871 127.954C193.981 128.201 194.09 128.45 194.195 128.701C194.263 128.863 194.329 129.027 194.395 129.19C194.495 129.437 194.593 129.685 194.688 129.936C194.751 130.102 194.814 130.27 194.876 130.438C194.97 130.693 195.06 130.952 195.15 131.211C195.206 131.376 195.264 131.541 195.319 131.706C195.411 131.987 195.499 132.27 195.587 132.556C195.631 132.702 195.678 132.848 195.722 132.996C195.834 133.378 195.942 133.763 196.045 134.151C196.059 134.204 196.075 134.256 196.088 134.309C196.204 134.752 196.313 135.199 196.417 135.65C196.448 135.786 196.476 135.925 196.506 136.062C196.576 136.378 196.644 136.695 196.707 137.015C196.742 137.188 196.773 137.362 196.806 137.537C196.841 137.727 196.875 137.919 196.908 138.111C196.463 138.212 196.018 138.309 195.571 138.394C195.486 138.41 195.402 138.423 195.317 138.438C194.897 138.516 194.476 138.586 194.054 138.65C193.89 138.674 193.726 138.696 193.561 138.719C193.205 138.768 192.848 138.812 192.492 138.85C192.327 138.868 192.163 138.887 191.999 138.903C191.567 138.945 191.134 138.979 190.702 139.006C190.625 139.011 190.549 139.018 190.473 139.023C189.968 139.05 189.463 139.068 188.957 139.076C188.809 139.079 188.661 139.078 188.513 139.078C188.145 139.08 187.778 139.078 187.41 139.069C187.238 139.066 187.067 139.06 186.896 139.054C186.769 139.05 186.643 139.04 186.516 139.035L189.326 120.396C189.379 120.463 189.433 120.526 189.485 120.593C189.586 120.722 189.686 120.853 189.785 120.984C189.937 121.183 190.086 121.384 190.233 121.588C190.33 121.722 190.427 121.858 190.523 121.994C190.669 122.203 190.813 122.415 190.955 122.628C191.044 122.763 191.135 122.896 191.223 123.034C191.373 123.268 191.518 123.504 191.664 123.741ZM192.001 166.998C191.593 166.854 191.182 166.715 190.768 166.585C190.594 166.53 190.418 166.477 190.243 166.425C189.876 166.315 189.507 166.209 189.136 166.109C188.961 166.062 188.787 166.014 188.611 165.97C188.173 165.859 187.734 165.756 187.292 165.659C187.191 165.638 187.091 165.613 186.99 165.592C186.448 165.478 185.902 165.377 185.352 165.284C185.204 165.26 185.055 165.24 184.907 165.217C184.498 165.153 184.088 165.095 183.676 165.043C183.487 165.019 183.298 164.998 183.108 164.977C182.943 164.959 182.78 164.936 182.615 164.92L183.934 156.171L196.716 157.107C196.713 157.118 196.712 157.13 196.71 157.141C196.702 157.184 196.693 157.226 196.685 157.268C196.59 157.781 196.487 158.291 196.378 158.8C196.344 158.961 196.309 159.121 196.273 159.282C196.178 159.707 196.079 160.132 195.975 160.553C195.941 160.689 195.91 160.824 195.876 160.96C195.739 161.5 195.595 162.038 195.442 162.574C195.412 162.679 195.38 162.785 195.349 162.89C195.222 163.328 195.09 163.765 194.952 164.198C194.902 164.357 194.851 164.516 194.799 164.675C194.657 165.11 194.51 165.543 194.359 165.974C194.323 166.075 194.289 166.177 194.253 166.277C194.087 166.739 193.913 167.197 193.736 167.653C193.273 167.464 192.805 167.285 192.334 167.113C192.223 167.073 192.111 167.038 192.001 166.998ZM177.412 164.733C177.305 164.736 177.2 164.74 177.095 164.743C176.707 164.755 176.319 164.772 175.932 164.795C175.877 164.799 175.822 164.801 175.768 164.804C175.337 164.832 174.906 164.866 174.476 164.907C174.371 164.917 174.266 164.928 174.161 164.939C173.784 164.977 173.408 165.02 173.032 165.069C172.966 165.077 172.901 165.085 172.835 165.094C172.407 165.151 171.981 165.216 171.555 165.285C171.451 165.303 171.349 165.321 171.245 165.338C170.878 165.402 170.51 165.47 170.143 165.542C170.069 165.558 169.995 165.571 169.921 165.586C169.498 165.672 169.075 165.767 168.654 165.866C168.554 165.89 168.453 165.915 168.353 165.939C167.993 166.026 167.635 166.118 167.275 166.216C167.22 166.231 167.163 166.244 167.108 166.259C167.063 165.76 167.021 165.259 166.991 164.756C166.984 164.642 166.98 164.528 166.974 164.414C166.949 163.957 166.93 163.499 166.917 163.039C166.912 162.867 166.908 162.695 166.905 162.522C166.897 162.066 166.894 161.61 166.898 161.152C166.899 161.031 166.897 160.91 166.899 160.788C166.907 160.217 166.924 159.646 166.951 159.072C166.957 158.934 166.966 158.795 166.973 158.657C166.997 158.208 167.026 157.758 167.061 157.307C167.074 157.133 167.088 156.96 167.103 156.786C167.145 156.294 167.194 155.802 167.249 155.309C167.26 155.216 167.268 155.123 167.279 155.03C167.282 155.004 167.286 154.977 167.289 154.95L180.07 155.887L178.739 164.717C178.73 164.717 178.721 164.718 178.713 164.718C178.28 164.717 177.846 164.723 177.412 164.733ZM172.351 140.216C172.44 140.254 172.529 140.292 172.619 140.329C172.999 140.485 173.381 140.636 173.766 140.78C173.83 140.804 173.895 140.827 173.96 140.85C174.295 140.973 174.631 141.091 174.97 141.204C175.065 141.236 175.162 141.269 175.258 141.301C175.649 141.429 176.043 141.552 176.439 141.668C176.497 141.685 176.555 141.7 176.613 141.716C176.964 141.818 177.317 141.913 177.673 142.003C177.773 142.03 177.873 142.055 177.974 142.08C178.378 142.18 178.783 142.276 179.191 142.364C179.239 142.375 179.287 142.384 179.334 142.394C179.704 142.472 180.076 142.544 180.45 142.612C180.554 142.631 180.658 142.651 180.763 142.669C181.178 142.741 181.594 142.809 182.014 142.868C182.02 142.87 182.028 142.871 182.035 142.871L180.704 151.702L167.945 150.767C168.053 150.207 168.169 149.649 168.293 149.095C168.328 148.941 168.364 148.788 168.4 148.635C168.503 148.187 168.613 147.74 168.727 147.294C168.768 147.135 168.807 146.977 168.85 146.819C169.001 146.247 169.16 145.676 169.329 145.11C169.343 145.063 169.359 145.016 169.373 144.969C169.53 144.448 169.696 143.93 169.867 143.415C169.921 143.252 169.977 143.088 170.033 142.926C170.183 142.489 170.338 142.053 170.498 141.62C170.547 141.488 170.594 141.356 170.644 141.225C170.834 140.723 171.032 140.226 171.236 139.732C171.283 139.753 171.331 139.772 171.378 139.794C171.701 139.939 172.025 140.08 172.351 140.216ZM186.939 143.268C187.349 143.278 187.76 143.28 188.17 143.277C188.324 143.276 188.478 143.279 188.633 143.276C189.191 143.267 189.747 143.248 190.304 143.216C190.408 143.21 190.51 143.201 190.613 143.194C191.069 143.164 191.526 143.129 191.982 143.085C192.167 143.067 192.352 143.046 192.537 143.026C192.924 142.983 193.309 142.936 193.694 142.883C193.881 142.857 194.068 142.832 194.254 142.804C194.691 142.739 195.127 142.664 195.563 142.586C195.683 142.563 195.804 142.545 195.924 142.522C196.432 142.425 196.94 142.32 197.446 142.204C197.489 142.692 197.529 143.182 197.558 143.674C197.567 143.799 197.571 143.923 197.578 144.048C197.601 144.483 197.619 144.92 197.632 145.358C197.636 145.515 197.641 145.673 197.643 145.831C197.654 146.359 197.659 146.887 197.653 147.418C197.653 147.443 197.653 147.469 197.653 147.495C197.646 148.049 197.629 148.605 197.606 149.162C197.6 149.319 197.591 149.477 197.583 149.635C197.561 150.073 197.534 150.512 197.502 150.952C197.491 151.09 197.482 151.228 197.471 151.366C197.429 151.883 197.379 152.401 197.322 152.92L184.565 151.986L185.884 143.237C186.045 143.244 186.207 143.246 186.369 143.252C186.559 143.257 186.749 143.263 186.939 143.268ZM201.189 153.202C201.258 152.595 201.314 151.989 201.363 151.383C201.378 151.203 201.39 151.024 201.403 150.843C201.436 150.39 201.465 149.938 201.487 149.486C201.496 149.304 201.506 149.121 201.514 148.94C201.538 148.35 201.557 147.761 201.564 147.175C201.564 147.155 201.565 147.136 201.565 147.117C201.572 146.511 201.566 145.908 201.554 145.306C201.55 145.131 201.544 144.956 201.539 144.782C201.526 144.334 201.508 143.888 201.485 143.443C201.475 143.266 201.467 143.092 201.455 142.916C201.418 142.317 201.374 141.721 201.318 141.127C201.837 140.957 202.351 140.775 202.863 140.586C203.01 140.532 203.156 140.476 203.302 140.42C203.7 140.268 204.095 140.112 204.489 139.949C204.629 139.891 204.77 139.834 204.91 139.774C205.419 139.557 205.926 139.332 206.427 139.096C206.493 139.065 206.557 139.031 206.622 139C207.062 138.79 207.498 138.572 207.93 138.347C208.077 138.271 208.223 138.194 208.37 138.116C208.756 137.91 209.141 137.697 209.522 137.48C209.634 137.415 209.749 137.353 209.861 137.287C210.299 137.032 210.733 136.771 211.163 136.501C213.739 141.848 214.813 147.882 214.305 154.162L201.19 153.201L201.189 153.202ZM209.226 133.052C208.882 133.266 208.537 133.48 208.188 133.683C208.146 133.707 208.103 133.73 208.061 133.755C207.664 133.983 207.264 134.203 206.859 134.417C206.741 134.48 206.622 134.543 206.502 134.605C206.091 134.818 205.678 135.026 205.26 135.224C205.222 135.242 205.185 135.261 205.148 135.279C204.696 135.493 204.239 135.695 203.779 135.891C203.659 135.942 203.538 135.992 203.418 136.042C203.03 136.203 202.64 136.358 202.248 136.507C202.161 136.54 202.074 136.575 201.986 136.607C201.584 136.756 201.179 136.895 200.771 137.031C200.75 136.908 200.722 136.787 200.699 136.663C200.617 136.204 200.528 135.748 200.434 135.296C200.393 135.097 200.352 134.897 200.308 134.699C200.192 134.175 200.069 133.656 199.937 133.141C199.912 133.042 199.891 132.942 199.865 132.843C199.706 132.237 199.535 131.64 199.356 131.048C199.305 130.881 199.251 130.717 199.199 130.551C199.061 130.117 198.92 129.688 198.772 129.262C198.706 129.072 198.64 128.883 198.571 128.696C198.411 128.254 198.244 127.818 198.071 127.385C198.017 127.251 197.966 127.114 197.912 126.98C197.684 126.426 197.446 125.879 197.197 125.342C197.137 125.212 197.073 125.085 197.013 124.956C196.816 124.542 196.616 124.133 196.407 123.729C196.32 123.559 196.231 123.391 196.141 123.223C195.936 122.838 195.726 122.459 195.509 122.084C195.453 121.986 195.401 121.884 195.344 121.786C200.978 123.906 205.827 127.818 209.226 133.052ZM178.938 120.843C178.638 121.155 178.341 121.471 178.047 121.792C177.915 121.937 177.783 122.081 177.652 122.228C177.323 122.596 176.999 122.971 176.679 123.351C176.601 123.443 176.522 123.532 176.445 123.625C176.053 124.097 175.669 124.579 175.291 125.069C175.192 125.198 175.095 125.33 174.996 125.46C174.716 125.831 174.439 126.204 174.167 126.585C174.045 126.754 173.925 126.924 173.805 127.097C173.546 127.468 173.291 127.843 173.038 128.223C172.936 128.377 172.831 128.531 172.73 128.687C172.387 129.216 172.049 129.752 171.721 130.296C171.684 130.357 171.648 130.421 171.612 130.483C171.321 130.97 171.036 131.465 170.757 131.964C170.658 132.143 170.561 132.323 170.464 132.502C170.245 132.904 170.03 133.31 169.819 133.72C169.763 133.829 169.704 133.935 169.648 134.044C169.328 133.851 169.009 133.659 168.698 133.457C168.652 133.428 168.608 133.396 168.562 133.366C168.217 133.141 167.878 132.907 167.544 132.67C167.448 132.601 167.352 132.533 167.256 132.464C166.886 132.195 166.519 131.921 166.161 131.637C166.147 131.625 166.132 131.613 166.118 131.601C165.774 131.327 165.438 131.045 165.106 130.758C165.015 130.681 164.925 130.601 164.836 130.522C164.516 130.239 164.199 129.951 163.89 129.655C163.868 129.634 163.845 129.613 163.823 129.593C163.566 129.345 163.318 129.089 163.07 128.833C167.83 124.574 173.372 121.748 179.185 120.583C179.101 120.667 179.021 120.758 178.938 120.843ZM160.064 131.834C160.376 132.158 160.694 132.476 161.018 132.788C161.09 132.857 161.164 132.925 161.236 132.993C161.537 133.279 161.844 133.56 162.155 133.835C162.265 133.933 162.376 134.03 162.487 134.126C162.817 134.411 163.152 134.69 163.492 134.963C163.553 135.011 163.61 135.062 163.672 135.109C164.069 135.424 164.475 135.728 164.886 136.026C164.995 136.105 165.105 136.181 165.215 136.259C165.536 136.487 165.862 136.71 166.192 136.927C166.311 137.006 166.43 137.086 166.55 137.163C166.974 137.436 167.401 137.703 167.838 137.96C167.827 137.985 167.817 138.012 167.806 138.037C167.763 138.141 167.722 138.247 167.679 138.351C167.476 138.845 167.28 139.341 167.089 139.84C167.016 140.03 166.945 140.221 166.875 140.413C166.712 140.855 166.553 141.299 166.4 141.745C166.338 141.923 166.275 142.101 166.215 142.28C166.011 142.892 165.814 143.507 165.628 144.125C165.615 144.167 165.605 144.209 165.592 144.251C165.42 144.83 165.257 145.413 165.102 145.998C165.051 146.189 165.003 146.381 164.954 146.572C164.837 147.029 164.725 147.488 164.618 147.949C164.573 148.144 164.527 148.338 164.483 148.533C164.354 149.112 164.233 149.695 164.119 150.279C164.108 150.336 164.096 150.393 164.084 150.449C164.082 150.46 164.08 150.471 164.078 150.482L150.968 149.522C152.43 142.977 155.597 136.819 160.064 131.834ZM150.27 153.705L163.426 154.669C163.419 154.725 163.414 154.782 163.407 154.838C163.387 155.004 163.372 155.169 163.353 155.335C163.301 155.812 163.253 156.287 163.212 156.762C163.193 156.973 163.176 157.182 163.16 157.392C163.125 157.851 163.096 158.309 163.071 158.766C163.061 158.949 163.05 159.133 163.041 159.315C163.013 159.945 162.993 160.573 162.985 161.198C162.984 161.267 162.986 161.335 162.985 161.404C162.98 161.963 162.984 162.52 162.994 163.076C162.998 163.271 163.005 163.464 163.011 163.658C163.024 164.103 163.042 164.548 163.066 164.991C163.077 165.187 163.087 165.383 163.099 165.58C163.132 166.094 163.172 166.607 163.219 167.118C163.228 167.222 163.235 167.327 163.245 167.432C163.248 167.46 163.25 167.488 163.252 167.516C163.241 167.52 163.231 167.525 163.219 167.529C163.175 167.545 163.131 167.564 163.087 167.581C162.597 167.767 162.111 167.964 161.627 168.168C161.475 168.233 161.323 168.299 161.172 168.365C160.765 168.542 160.362 168.725 159.961 168.913C159.835 168.972 159.709 169.03 159.583 169.09C159.073 169.337 158.567 169.591 158.067 169.857C157.97 169.909 157.874 169.964 157.777 170.015C157.369 170.237 156.963 170.464 156.56 170.698C156.414 170.783 156.268 170.869 156.122 170.956C155.723 171.194 155.327 171.439 154.935 171.69C154.842 171.751 154.746 171.808 154.653 171.869C154.233 172.143 153.815 172.423 153.402 172.712C150.634 167.031 149.538 160.402 150.27 153.705ZM155.358 176.139C155.72 175.887 156.082 175.637 156.451 175.397C156.528 175.347 156.607 175.299 156.685 175.249C157.047 175.016 157.413 174.79 157.782 174.571C157.898 174.501 158.014 174.433 158.13 174.364C158.572 174.107 159.016 173.855 159.467 173.615C159.488 173.604 159.509 173.594 159.53 173.582C159.962 173.353 160.398 173.135 160.837 172.921C160.963 172.86 161.09 172.8 161.215 172.74C161.613 172.553 162.013 172.371 162.417 172.197C162.49 172.165 162.561 172.132 162.633 172.101C163.024 171.934 163.422 171.778 163.819 171.624C163.841 171.748 163.87 171.868 163.892 171.991C163.982 172.479 164.078 172.964 164.181 173.444C164.223 173.643 164.265 173.843 164.31 174.04C164.443 174.625 164.584 175.204 164.735 175.776C164.752 175.84 164.766 175.905 164.783 175.968C164.953 176.601 165.139 177.223 165.332 177.84C165.387 178.015 165.446 178.187 165.502 178.361C165.65 178.814 165.804 179.262 165.965 179.706C166.033 179.893 166.1 180.079 166.17 180.263C166.358 180.764 166.555 181.259 166.76 181.747C166.8 181.841 166.836 181.937 166.876 182.031C167.122 182.606 167.38 183.17 167.648 183.728C167.721 183.877 167.796 184.025 167.871 184.173C168.076 184.588 168.287 184.996 168.505 185.4C168.598 185.569 168.689 185.738 168.783 185.906C169.02 186.332 169.266 186.751 169.518 187.164C169.57 187.249 169.617 187.337 169.668 187.421C163.868 185.378 158.865 181.457 155.358 176.139ZM184.675 188.536C185.022 188.194 185.364 187.844 185.703 187.488C185.791 187.396 185.879 187.303 185.967 187.21C186.286 186.871 186.603 186.527 186.914 186.177C186.941 186.146 186.97 186.115 186.997 186.084C187.332 185.707 187.661 185.32 187.987 184.93C188.069 184.831 188.15 184.733 188.231 184.633C188.529 184.27 188.825 183.903 189.115 183.53C189.145 183.492 189.175 183.455 189.205 183.417C189.519 183.011 189.827 182.598 190.131 182.18C190.207 182.076 190.283 181.971 190.359 181.866C190.633 181.483 190.905 181.097 191.172 180.705C191.203 180.658 191.236 180.612 191.267 180.566C191.559 180.134 191.844 179.697 192.125 179.255C192.195 179.146 192.264 179.035 192.333 178.925C192.583 178.525 192.83 178.123 193.072 177.716C193.105 177.659 193.14 177.604 193.172 177.547C193.439 177.095 193.698 176.637 193.953 176.174C194.018 176.058 194.081 175.941 194.144 175.824C194.368 175.412 194.588 174.998 194.802 174.579C194.836 174.512 194.872 174.447 194.906 174.38C195.1 173.998 195.291 173.613 195.477 173.226C195.858 173.434 196.236 173.644 196.607 173.865C196.693 173.916 196.777 173.97 196.863 174.022C197.205 174.23 197.544 174.445 197.878 174.665C197.99 174.738 198.102 174.812 198.212 174.887C199.022 175.434 199.806 176.016 200.56 176.631C200.662 176.715 200.765 176.8 200.866 176.885C201.172 177.141 201.473 177.402 201.769 177.668C201.842 177.734 201.917 177.798 201.989 177.864C202.303 178.152 202.609 178.45 202.912 178.75C197.721 183.922 191.342 187.323 184.675 188.536ZM205.759 175.586C205.412 175.241 205.058 174.907 204.698 174.576C204.609 174.494 204.516 174.415 204.425 174.333C204.109 174.049 203.788 173.769 203.461 173.497C203.335 173.392 203.21 173.287 203.081 173.184C202.735 172.902 202.383 172.626 202.025 172.356C201.947 172.298 201.872 172.237 201.793 172.179C201.363 171.86 200.923 171.551 200.476 171.25C200.358 171.17 200.236 171.093 200.116 171.014C199.771 170.787 199.421 170.566 199.067 170.35C198.929 170.267 198.792 170.182 198.652 170.101C198.217 169.843 197.775 169.592 197.327 169.351C197.292 169.331 197.259 169.311 197.223 169.292C197.215 169.289 197.208 169.284 197.201 169.28C197.201 169.279 197.202 169.279 197.202 169.279C197.204 169.273 197.206 169.267 197.208 169.261C197.429 168.701 197.64 168.137 197.844 167.571C197.907 167.397 197.967 167.224 198.028 167.05C198.174 166.633 198.316 166.215 198.454 165.795C198.513 165.613 198.573 165.431 198.631 165.248C198.79 164.747 198.943 164.243 199.09 163.738C199.113 163.656 199.14 163.573 199.164 163.491C199.331 162.905 199.488 162.316 199.638 161.725C199.679 161.559 199.719 161.393 199.76 161.226C199.868 160.787 199.971 160.347 200.069 159.905C200.111 159.714 200.153 159.522 200.194 159.33C200.295 158.856 200.39 158.38 200.481 157.903C200.505 157.772 200.533 157.641 200.557 157.51C200.564 157.47 200.572 157.431 200.58 157.391L213.74 158.355C212.532 164.68 209.8 170.575 205.759 175.586Z" fill="#E8F0FE"/>
<path d="M226.236 95.2958L151.55 89.0002L150.502 96.9965L225.188 103.292L226.236 95.2958Z" fill="#E8F0FE"/>
<path d="M112.731 248.335L121.416 249.095L120.326 261.556C119.893 266.503 123.264 270.556 128.169 270.985C128.817 271.042 129.485 271.034 130.154 270.962L238.437 259.288C239.16 259.286 239.869 259.209 240.553 259.061L240.569 259.059L240.569 259.057C244.766 258.137 248.068 254.599 248.46 250.124L263.638 76.6351C264.121 71.1166 259.996 66.2315 254.443 65.7456L129.66 54.8285C124.107 54.3427 119.197 58.4374 118.714 63.9559L103.536 237.444C103.053 242.964 107.178 247.849 112.731 248.335ZM129.592 265.866C129.257 265.902 128.929 265.906 128.615 265.879C126.543 265.698 125.277 264.141 125.464 262.006L126.554 249.544L211.805 257.003L129.592 265.866ZM123.853 64.4055C124.089 61.7025 126.494 59.6971 129.214 59.935L253.997 70.8522C256.716 71.0901 258.737 73.4826 258.5 76.1856L243.322 249.674C243.085 252.377 240.68 254.383 237.961 254.145L113.178 243.228C110.458 242.99 108.438 240.597 108.674 237.894L123.853 64.4055Z" fill="#E8F0FE"/>
</g>
<defs>
<clipPath id="clip0_1_105">
<rect width="270" height="202" fill="white"/>
</clipPath>
</defs>
</svg>
