<svg width="40" height="40" viewBox="0 0 40 40" fill="none" xmlns="http://www.w3.org/2000/svg">
<rect width="40" height="39.9994" rx="19.9997" fill="#F4F5FF"/>
<path d="M20.0186 8.33319C23.0152 8.3333 25.8961 9.49041 28.0602 11.5631L29.7402 9.88317C29.898 9.72518 30.0991 9.61756 30.3181 9.57394C30.5371 9.53033 30.7641 9.55267 30.9704 9.63815C31.1767 9.72363 31.353 9.8684 31.477 10.0541C31.6009 10.2399 31.667 10.4582 31.6668 10.6815V16.9897C31.6668 17.289 31.5479 17.576 31.3363 17.7876C31.1247 17.9992 30.8377 18.118 30.5385 18.118H24.2269C24.0036 18.1182 23.7853 18.0522 23.5996 17.9282C23.4138 17.8042 23.2691 17.6279 23.1836 17.4216C23.0981 17.2154 23.0758 16.9883 23.1194 16.7693C23.163 16.5503 23.2706 16.3492 23.4286 16.1914L25.3936 14.2298C24.2762 13.1855 22.8799 12.4879 21.3739 12.2215C19.8679 11.9551 18.317 12.1313 16.9092 12.7289C15.5014 13.3265 14.2972 14.3197 13.4427 15.588C12.5882 16.8564 12.12 18.3455 12.095 19.8746C12.07 21.4038 12.4892 22.9074 13.3018 24.203C14.1144 25.4986 15.2855 26.5307 16.673 27.1739C18.0605 27.8172 19.6048 28.0441 21.1187 27.8271C22.6326 27.6101 24.051 26.9584 25.2019 25.9513C25.3096 25.8571 25.4492 25.8074 25.5922 25.8124C25.7352 25.8173 25.8709 25.8765 25.9719 25.9779L27.8369 27.8429C27.8911 27.8973 27.9336 27.9621 27.9619 28.0334C27.9903 28.1048 28.0037 28.1812 28.0015 28.2579C27.9994 28.3346 27.9816 28.4101 27.9492 28.4798C27.9169 28.5494 27.8707 28.6117 27.8135 28.6629C26.4071 29.9314 24.713 30.8384 22.8776 31.3056C21.0422 31.7728 19.1206 31.7862 17.2789 31.3445C15.4372 30.9028 13.7307 30.0193 12.3068 28.7704C10.883 27.5216 9.78456 25.9448 9.1065 24.1764C8.42845 22.408 8.19113 20.5011 8.41504 18.6204C8.63896 16.7397 9.31738 14.9418 10.3917 13.3821C11.466 11.8223 12.9039 10.5475 14.5812 9.66784C16.2585 8.78819 18.1247 8.33012 20.0186 8.33319Z" fill="#5D59F3"/>
</svg>
