<svg width="16" height="16" viewBox="0 0 16 16" fill="none" xmlns="http://www.w3.org/2000/svg">
<path d="M8.72727 0.272146C8.72727 0.272146 7.97481 -0.340183 7.36 0.272146C6.74519 0.884476 7.36 1.63389 7.36 1.63389L12.7709 7.03262L0.969697 7.03262C0.969697 7.03262 0 7.03262 0 7.9984C0 8.96419 0.969697 8.96419 0.969697 8.96419L12.7709 8.96419L7.3503 14.3533C7.3503 14.3533 6.72856 15.1052 7.3503 15.7247C7.97204 16.3442 8.72727 15.7247 8.72727 15.7247L15.5152 8.96419C15.5152 8.96419 16 8.59347 16 7.9981C16 7.40273 15.5152 7.03262 15.5152 7.03262L8.72727 0.272146Z" fill="white"/>
</svg>
