<svg width="71" height="20" viewBox="0 0 71 20" fill="none" xmlns="http://www.w3.org/2000/svg">
<path d="M2.23813 6.36364C2.23813 6.36364 1.70234 7.02204 2.23813 7.56C2.77392 8.09796 3.42966 7.56 3.42966 7.56L8.15354 2.82545V13.1515C8.15354 13.1515 8.15354 14 8.9986 14C9.84366 14 9.84367 13.1515 9.84367 13.1515V2.82545L14.5591 7.56848C14.5591 7.56848 15.217 8.11251 15.7591 7.56848C16.3011 7.02446 15.7591 6.36364 15.7591 6.36364L9.84367 0.424242C9.84367 0.424242 9.51929 -4.17233e-07 8.99834 -4.17233e-07C8.47739 -4.17232e-07 8.15354 0.424242 8.15354 0.424242L2.23813 6.36364Z" fill="white"/>
<path fill-rule="evenodd" clip-rule="evenodd" d="M0.000244141 16.9999C0.000244141 16.4476 0.447959 15.9999 1.00024 15.9999C1.55253 15.9999 2.00024 16.4476 2.00024 16.9999V17.9999H16.0002V16.9999C16.0002 16.4476 16.448 15.9999 17.0002 15.9999C17.5525 15.9999 18.0002 16.4476 18.0002 16.9999V18.9999C18.0002 19.5522 17.5525 19.9999 17.0002 19.9999H1.00024C0.447959 19.9999 0.000244141 19.5522 0.000244141 18.9999V16.9999Z" fill="white"/>
<path d="M31.1327 14.6119C29.8447 14.6119 28.8694 14.2759 28.2067 13.6039C27.544 12.9319 27.2127 11.9426 27.2127 10.6359V5.14791C27.2127 4.97057 27.264 4.83057 27.3667 4.72791C27.4694 4.61591 27.6094 4.55991 27.7867 4.55991C27.9547 4.55991 28.09 4.61591 28.1927 4.72791C28.2954 4.83057 28.3467 4.97057 28.3467 5.14791V10.7339C28.3467 11.6952 28.58 12.4186 29.0467 12.9039C29.5227 13.3892 30.218 13.6319 31.1327 13.6319C32.0474 13.6319 32.738 13.3892 33.2047 12.9039C33.6714 12.4186 33.9047 11.6952 33.9047 10.7339V5.14791C33.9047 4.97057 33.956 4.83057 34.0587 4.72791C34.1707 4.61591 34.3107 4.55991 34.4787 4.55991C34.656 4.55991 34.796 4.61591 34.8987 4.72791C35.0014 4.83057 35.0527 4.97057 35.0527 5.14791V10.6359C35.0527 11.9332 34.7167 12.9226 34.0447 13.6039C33.382 14.2759 32.4114 14.6119 31.1327 14.6119ZM40.6756 7.51391C41.2729 7.51391 41.8002 7.66324 42.2576 7.96191C42.7149 8.26057 43.0696 8.68057 43.3216 9.22191C43.5736 9.75391 43.6996 10.3746 43.6996 11.0839C43.6996 11.7932 43.5736 12.4139 43.3216 12.9459C43.0696 13.4686 42.7149 13.8746 42.2576 14.1639C41.8096 14.4532 41.2822 14.5979 40.6756 14.5979C40.1436 14.5979 39.6769 14.4812 39.2756 14.2479C38.8836 14.0146 38.5849 13.6832 38.3796 13.2539V16.5439C38.3796 16.7119 38.3282 16.8426 38.2256 16.9359C38.1322 17.0386 37.9969 17.0899 37.8196 17.0899C37.6422 17.0899 37.5022 17.0386 37.3996 16.9359C37.2969 16.8332 37.2456 16.7026 37.2456 16.5439V8.10191C37.2456 7.93391 37.2969 7.79857 37.3996 7.69591C37.5022 7.59324 37.6422 7.54191 37.8196 7.54191C37.9969 7.54191 38.1322 7.59324 38.2256 7.69591C38.3282 7.79857 38.3796 7.93391 38.3796 8.10191V8.85791C38.5849 8.42857 38.8836 8.09724 39.2756 7.86391C39.6769 7.63057 40.1436 7.51391 40.6756 7.51391ZM40.4516 13.6599C41.1142 13.6599 41.6276 13.4359 41.9916 12.9879C42.3556 12.5399 42.5376 11.9052 42.5376 11.0839C42.5376 10.2626 42.3556 9.62324 41.9916 9.16591C41.6276 8.69924 41.1142 8.46591 40.4516 8.46591C39.7889 8.46591 39.2756 8.68991 38.9116 9.13791C38.5569 9.58591 38.3796 10.2252 38.3796 11.0559C38.3796 11.8866 38.5569 12.5306 38.9116 12.9879C39.2756 13.4359 39.7889 13.6599 40.4516 13.6599ZM45.968 14.5699C45.8 14.5699 45.66 14.5232 45.548 14.4299C45.4453 14.3272 45.394 14.1872 45.394 14.0099V5.11991C45.394 4.94257 45.4453 4.80724 45.548 4.71391C45.66 4.61124 45.8 4.55991 45.968 4.55991C46.1267 4.55991 46.2573 4.61124 46.36 4.71391C46.472 4.80724 46.528 4.94257 46.528 5.11991V14.0099C46.528 14.1872 46.472 14.3272 46.36 14.4299C46.2573 14.5232 46.1267 14.5699 45.968 14.5699ZM51.4759 14.5979C50.8319 14.5979 50.2626 14.4532 49.7679 14.1639C49.2826 13.8746 48.9046 13.4639 48.6339 12.9319C48.3726 12.3906 48.2419 11.7652 48.2419 11.0559C48.2419 10.3466 48.3726 9.72591 48.6339 9.19391C48.9046 8.65258 49.2826 8.23724 49.7679 7.94791C50.2626 7.65857 50.8319 7.51391 51.4759 7.51391C52.1199 7.51391 52.6892 7.65857 53.1839 7.94791C53.6786 8.23724 54.0566 8.65258 54.3179 9.19391C54.5886 9.72591 54.7239 10.3466 54.7239 11.0559C54.7239 11.7652 54.5886 12.3906 54.3179 12.9319C54.0566 13.4639 53.6786 13.8746 53.1839 14.1639C52.6892 14.4532 52.1199 14.5979 51.4759 14.5979ZM51.4759 13.6599C52.1479 13.6599 52.6612 13.4406 53.0159 13.0019C53.3799 12.5539 53.5619 11.9052 53.5619 11.0559C53.5619 10.2252 53.3799 9.58591 53.0159 9.13791C52.6519 8.68057 52.1386 8.45191 51.4759 8.45191C50.8132 8.45191 50.2999 8.68057 49.9359 9.13791C49.5719 9.58591 49.3899 10.2252 49.3899 11.0559C49.3899 11.8959 49.5672 12.5399 49.9219 12.9879C50.2859 13.4359 50.8039 13.6599 51.4759 13.6599ZM59.1995 7.51391C60.9075 7.51391 61.7615 8.40991 61.7615 10.2019V14.0099C61.7615 14.1779 61.7102 14.3132 61.6075 14.4159C61.5142 14.5186 61.3835 14.5699 61.2155 14.5699C61.0475 14.5699 60.9122 14.5186 60.8095 14.4159C60.7069 14.3132 60.6555 14.1779 60.6555 14.0099V13.3379C60.4782 13.7392 60.2075 14.0519 59.8435 14.2759C59.4795 14.4906 59.0595 14.5979 58.5835 14.5979C58.1449 14.5979 57.7389 14.5092 57.3655 14.3319C57.0015 14.1546 56.7122 13.9072 56.4975 13.5899C56.2829 13.2726 56.1755 12.9226 56.1755 12.5399C56.1755 12.0266 56.3062 11.6299 56.5675 11.3499C56.8289 11.0606 57.2582 10.8552 57.8555 10.7339C58.4529 10.6032 59.2835 10.5379 60.3475 10.5379H60.6555V10.0759C60.6555 9.51591 60.5389 9.10524 60.3055 8.84391C60.0815 8.58257 59.7129 8.45191 59.1995 8.45191C58.5649 8.45191 57.9209 8.62457 57.2675 8.96991C57.0155 9.12857 56.8382 9.20791 56.7355 9.20791C56.6235 9.20791 56.5302 9.16591 56.4555 9.08191C56.3809 8.99791 56.3435 8.89057 56.3435 8.75991C56.3435 8.62924 56.3809 8.51724 56.4555 8.42391C56.5395 8.32124 56.6702 8.21857 56.8475 8.11591C57.1742 7.92924 57.5429 7.78457 57.9535 7.68191C58.3735 7.56991 58.7889 7.51391 59.1995 7.51391ZM58.7375 13.7019C59.2975 13.7019 59.7549 13.5152 60.1095 13.1419C60.4735 12.7592 60.6555 12.2692 60.6555 11.6719V11.2659H60.4035C59.5822 11.2659 58.9569 11.3032 58.5275 11.3779C58.0982 11.4432 57.7902 11.5599 57.6035 11.7279C57.4262 11.8866 57.3375 12.1246 57.3375 12.4419C57.3375 12.8059 57.4682 13.1092 57.7295 13.3519C58.0002 13.5852 58.3362 13.7019 58.7375 13.7019ZM69.3114 4.55991C69.4887 4.55991 69.6287 4.61124 69.7314 4.71391C69.834 4.81657 69.8854 4.94724 69.8854 5.10591V14.0099C69.8854 14.1779 69.834 14.3132 69.7314 14.4159C69.6287 14.5186 69.4887 14.5699 69.3114 14.5699C69.134 14.5699 68.994 14.5186 68.8914 14.4159C68.798 14.3132 68.7514 14.1779 68.7514 14.0099V13.2539C68.546 13.6832 68.2427 14.0146 67.8414 14.2479C67.4494 14.4812 66.9874 14.5979 66.4554 14.5979C65.858 14.5979 65.3307 14.4486 64.8734 14.1499C64.416 13.8512 64.0614 13.4359 63.8094 12.9039C63.5574 12.3626 63.4314 11.7372 63.4314 11.0279C63.4314 10.3279 63.5574 9.71191 63.8094 9.17991C64.0614 8.64791 64.416 8.23724 64.8734 7.94791C65.3307 7.65857 65.858 7.51391 66.4554 7.51391C66.9874 7.51391 67.4494 7.63057 67.8414 7.86391C68.2427 8.09724 68.546 8.42857 68.7514 8.85791V5.10591C68.7514 4.93791 68.798 4.80724 68.8914 4.71391C68.994 4.61124 69.134 4.55991 69.3114 4.55991ZM66.6794 13.6599C67.342 13.6599 67.8507 13.4359 68.2054 12.9879C68.5694 12.5306 68.7514 11.8866 68.7514 11.0559C68.7514 10.2252 68.5694 9.58591 68.2054 9.13791C67.8507 8.68991 67.342 8.46591 66.6794 8.46591C66.0167 8.46591 65.4987 8.68991 65.1254 9.13791C64.7614 9.58591 64.5794 10.2159 64.5794 11.0279C64.5794 11.8586 64.7614 12.5072 65.1254 12.9739C65.4987 13.4312 66.0167 13.6599 66.6794 13.6599Z" fill="#FAFAFE"/>
</svg>
