<svg width="40" height="40" viewBox="0 0 40 40" fill="none" xmlns="http://www.w3.org/2000/svg">
<rect width="40" height="40" rx="20" fill="#F4F5FF"/>
<path d="M22.2977 10.6667H25.7037C26.6 10.6667 27.3333 11.6001 27.3333 12.7408V27.2593C27.3333 28.4001 26.6 29.3334 25.7037 29.3334H14.2963C13.4 29.3334 12.6666 28.4001 12.6666 27.2593V12.7408C12.6666 11.6001 13.4 10.6667 14.2963 10.6667H17.7022H22.2977Z" stroke="#5D59F3" stroke-width="2.08333"/>
<path d="M15.7067 23.6667C15.56 23.6667 15.4489 23.6289 15.3733 23.5534C15.3022 23.4734 15.2711 23.3712 15.28 23.2467C15.2933 23.1223 15.3489 22.9934 15.4467 22.8601L17.7933 19.6801H15.64C15.3867 19.6801 15.26 19.5601 15.26 19.3201C15.26 19.0845 15.3867 18.9667 15.64 18.9667H18.4C18.5467 18.9667 18.6556 19.0067 18.7267 19.0867C18.8022 19.1623 18.8356 19.2623 18.8267 19.3867C18.8178 19.5067 18.7622 19.6356 18.66 19.7734L16.3133 22.9534H18.5667C18.82 22.9534 18.9467 23.0712 18.9467 23.3067C18.9467 23.5467 18.82 23.6667 18.5667 23.6667H15.7067ZM19.9765 23.7201C19.692 23.7201 19.5498 23.5734 19.5498 23.2801V19.3534C19.5498 19.0601 19.692 18.9134 19.9765 18.9134C20.2609 18.9134 20.4031 19.0601 20.4031 19.3534V23.2801C20.4031 23.5734 20.2609 23.7201 19.9765 23.7201ZM21.858 23.7201C21.5735 23.7201 21.4313 23.5734 21.4313 23.2801V19.4001C21.4313 19.1112 21.5757 18.9667 21.8646 18.9667H23.4713C23.9869 18.9667 24.3846 19.0956 24.6646 19.3534C24.9446 19.6112 25.0846 19.9712 25.0846 20.4334C25.0846 20.8956 24.9446 21.2578 24.6646 21.5201C24.3846 21.7778 23.9869 21.9067 23.4713 21.9067H22.2846V23.2801C22.2846 23.5734 22.1424 23.7201 21.858 23.7201ZM22.2846 21.2334H23.338C23.9513 21.2334 24.258 20.9667 24.258 20.4334C24.258 19.9045 23.9513 19.6401 23.338 19.6401H22.2846V21.2334Z" fill="#5D59F3"/>
</svg>
